<svg width="100" height="100" viewBox="0 0 100 100" fill="none" xmlns="http://www.w3.org/2000/svg">
<path d="M42.6676 64.3477V75.5598C42.6676 78.8325 33.804 81.484 22.8494 81.484C11.8949 81.484 3.03125 78.8325 3.03125 75.5598V64.3477C3.03125 67.6204 11.8949 70.287 22.8494 70.287C33.804 70.287 42.6676 67.6204 42.6676 64.3477Z" fill="#7CB7FF"/>
<path d="M42.6676 53.1367V64.3488C42.6676 67.6216 33.804 70.2731 22.8494 70.2731C11.8949 70.2731 3.03125 67.6216 3.03125 64.364V53.1519C3.03125 56.4246 11.8949 59.0913 22.8494 59.0913C33.804 59.0913 42.6676 56.4094 42.6676 53.1367Z" fill="#DDEBFD"/>
<path d="M9.37973 57.4849C5.47064 56.4091 3.03125 54.8637 3.03125 53.1516V41.9395C3.03125 45.2122 11.8949 47.8788 22.8494 47.8788C33.804 47.8788 42.6676 45.2122 42.6676 41.9395V53.1516C42.6676 56.4243 33.804 59.0758 22.8494 59.0758C20.1828 59.0758 17.6525 58.9243 15.3343 58.6364" fill="#7CB7FF"/>
<path d="M42.6676 30.7129V41.925C42.6676 45.1977 33.804 47.8493 22.8494 47.8493C11.8949 47.8493 3.03125 45.2129 3.03125 41.9402V30.728C3.03125 34.0008 11.8949 36.6674 22.8494 36.6674C33.804 36.6674 42.6676 33.9856 42.6676 30.7129Z" fill="#DDEBFD"/>
<path d="M42.6676 30.7729C42.6676 34.0153 33.804 36.6517 22.8494 36.6517C11.91 36.6517 3.03125 34.0153 3.03125 30.7729C3.03125 29.2426 4.97064 27.8638 8.15246 26.8184C10.8646 29.1214 18.2131 30.7578 26.8494 30.7578C32.6979 30.7578 37.9403 30.0002 41.5616 28.8184C42.2737 29.4244 42.6676 30.0911 42.6676 30.7729Z" fill="#7CB7FF"/>
<path d="M41.5614 28.8178C37.9402 29.9996 32.6978 30.7572 26.8493 30.7572C18.2129 30.7572 10.8645 29.1209 8.15234 26.8178C11.7736 25.6209 17.016 24.8633 22.8493 24.8633C31.516 24.8633 38.8645 26.5148 41.5614 28.8178Z" fill="white"/>
<path opacity="0.3" d="M41.5614 28.8178C37.9402 29.9996 32.6978 30.7572 26.8493 30.7572C18.2129 30.7572 10.8645 29.1209 8.15234 26.8178C11.7736 25.6209 17.016 24.8633 22.8493 24.8633C31.516 24.8633 38.8645 26.5148 41.5614 28.8178Z" fill="white"/>
<path d="M22.8491 82.6215C12.44 82.6215 1.89453 80.1973 1.89453 75.5609V64.3336C1.89453 63.7124 2.40968 63.1973 3.03089 63.1973C3.65211 63.1973 4.16726 63.7124 4.16726 64.3336C4.16726 66.2882 11.44 69.1367 22.8491 69.1367C26.1521 69.1367 29.4097 68.8791 32.2733 68.4094C32.8945 68.3185 33.4703 68.7276 33.5763 69.3488C33.6824 69.97 33.2582 70.5458 32.637 70.6518C23.1218 72.2276 9.48544 71.273 4.15211 67.7276V75.5609C4.15211 77.5154 11.4248 80.3488 22.8339 80.3488C34.243 80.3488 41.5157 77.5154 41.5157 75.5609V67.7427C40.9097 68.1367 40.1824 68.5155 39.3491 68.8639C39.2109 68.9217 39.0627 68.9515 38.9129 68.9515C38.7631 68.9514 38.6149 68.9217 38.4767 68.8639C38.3386 68.8061 38.2133 68.7214 38.1081 68.6148C38.003 68.5081 37.9201 68.3817 37.8642 68.2427C37.6218 67.667 37.8945 67.0003 38.4854 66.7579C40.7279 65.8336 41.5309 64.8942 41.5309 64.3336C41.5309 63.7124 42.046 63.1973 42.6673 63.1973C43.2885 63.1973 43.8036 63.7124 43.8036 64.3336V75.5609C43.8188 80.1973 33.2733 82.6215 22.8491 82.6215Z" fill="#1576ED"/>
<path d="M38.939 68.9545C38.675 68.9568 38.4185 68.8666 38.2141 68.6996C38.0097 68.5325 37.8701 68.2992 37.8197 68.04C37.7694 67.7809 37.8113 67.5123 37.9382 67.2808C38.0652 67.0493 38.2691 66.8695 38.5148 66.7727C40.7572 65.8485 41.5602 64.9242 41.5602 64.3636V56.5303C36.9239 59.6061 25.9996 60.7727 16.9845 59.9545C16.8352 59.9406 16.6902 59.8974 16.5577 59.8275C16.4251 59.7575 16.3077 59.6621 16.212 59.5467C16.1163 59.4313 16.0443 59.2983 16.0001 59.1551C15.9558 59.0119 15.9402 58.8614 15.9542 58.7121C15.9681 58.5629 16.0113 58.4179 16.0812 58.2853C16.1512 58.1528 16.2466 58.0353 16.362 57.9397C16.4774 57.844 16.6104 57.772 16.7536 57.7277C16.8968 57.6835 17.0474 57.6679 17.1966 57.6818C19.0299 57.8485 20.939 57.9394 22.8784 57.9394C34.2875 57.9394 41.5602 55.0909 41.5602 53.1364C41.5602 52.5152 42.0754 52 42.6966 52C43.3178 52 43.8329 52.5152 43.8329 53.1364V64.3485C43.8329 66.1212 42.3329 67.6364 39.3936 68.8636C39.2269 68.9242 39.0754 68.9545 38.939 68.9545Z" fill="#1576ED"/>
<path d="M22.8491 71.4091C12.44 71.4091 1.89453 68.9849 1.89453 64.3485V53.1364C1.89453 52.5152 2.40968 52 3.03089 52C3.65211 52 4.16726 52.5152 4.16726 53.1364C4.16726 53.9848 5.84908 55.3182 9.6218 56.3788C10.2279 56.5455 10.5763 57.1818 10.4097 57.7727C10.243 58.3788 9.6218 58.7273 9.01574 58.5606C6.97029 57.9849 5.34908 57.303 4.18241 56.5303V64.3636C4.18241 66.3182 11.4551 69.1515 22.8642 69.1515C25.8036 69.1515 28.6067 68.9545 31.2279 68.5909C31.8339 68.4848 32.4248 68.9394 32.5157 69.5606C32.6066 70.1818 32.1673 70.7576 31.546 70.8485C28.8188 71.2121 25.8945 71.4091 22.8491 71.4091Z" fill="#1576ED"/>
<path d="M22.8491 60.1967C20.8491 60.1967 18.8642 60.1058 16.9703 59.9391C16.8146 59.9351 16.6615 59.8991 16.5203 59.8334C16.3791 59.7677 16.253 59.6736 16.1497 59.5572C16.0463 59.4407 15.9681 59.3042 15.9197 59.1562C15.8713 59.0082 15.8539 58.8518 15.8684 58.6968C15.883 58.5418 15.9293 58.3914 16.0044 58.255C16.0795 58.1186 16.1818 57.9991 16.305 57.9039C16.4282 57.8087 16.5697 57.7398 16.7206 57.7016C16.8715 57.6633 17.0287 57.6565 17.1824 57.6815C19.0157 57.8482 20.9248 57.9391 22.8642 57.9391C34.2733 57.9391 41.5461 55.1058 41.5461 53.1512V45.3482C38.1218 47.5906 31.8036 48.4239 29.3945 48.6815C28.7885 48.7421 28.2127 48.2876 28.1521 47.6664C28.1225 47.3671 28.2127 47.0683 28.403 46.8354C28.5933 46.6025 28.8681 46.4546 29.1673 46.4239C37.6218 45.5603 41.5612 43.2421 41.5612 41.9391C41.5612 41.3179 42.0764 40.8027 42.6976 40.8027C43.3188 40.8027 43.8339 41.3179 43.8339 41.9391V53.1512C43.8188 57.7876 33.2733 60.1967 22.8491 60.1967ZM8.15211 58.2573C8.0309 58.2573 7.90968 58.2421 7.78847 58.1967C2.92483 56.5906 1.89453 54.5603 1.89453 53.1512V41.9391C1.89453 41.3179 2.40968 40.8027 3.03089 40.8027C3.65211 40.8027 4.16726 41.3179 4.16726 41.9391C4.16726 43.8027 11.1067 46.5906 21.9854 46.727C22.6067 46.7421 23.1218 47.2573 23.1067 47.8785C23.0915 48.4997 22.5915 48.9694 21.9551 48.9997C15.046 48.9088 7.75817 47.727 4.16726 45.3482V53.1512C4.16726 53.8179 5.30362 54.9846 8.50059 56.0452C9.0915 56.2421 9.42484 56.8785 9.22787 57.4846C9.1499 57.7084 9.00474 57.9028 8.81221 58.0411C8.61967 58.1794 8.38915 58.2549 8.15211 58.2573Z" fill="#1576ED"/>
<path d="M10.1521 58.8342C10.0612 58.8342 9.97029 58.8191 9.87938 58.8039C9.13695 58.6221 8.43998 58.4251 7.78847 58.1979C7.19756 58.0009 6.86423 57.3645 7.0612 56.7585C7.25817 56.1524 7.89453 55.8494 8.50059 56.0312C9.10665 56.2282 9.74302 56.41 10.4248 56.5766C11.0309 56.7282 11.4097 57.3494 11.2582 57.9554C11.137 58.4857 10.6673 58.8342 10.1521 58.8342ZM20.3036 48.9403H20.2582C11.1218 48.5918 1.89453 46.2888 1.89453 41.9403V30.7282C1.89453 30.1069 2.40968 29.5918 3.03089 29.5918C3.65211 29.5918 4.16726 30.1069 4.16726 30.7282C4.16726 32.6827 11.44 35.5312 22.8491 35.5312C34.2582 35.5312 41.5309 32.6827 41.5309 30.7282C41.5309 30.1069 42.046 29.5918 42.6673 29.5918C43.2885 29.5918 43.8036 30.1069 43.8036 30.7282V41.9403C43.8036 46.0615 35.6673 48.1827 28.0612 48.7888C27.4551 48.8342 26.8945 48.3797 26.8339 47.7433C26.7885 47.1221 27.2582 46.5766 27.8794 46.516C36.7885 45.8039 41.5309 43.3948 41.5309 41.9251V34.0918C34.2127 38.9403 11.4854 38.9403 4.16726 34.0918V41.9251C4.16726 43.6069 9.92483 46.2585 20.3339 46.6676C20.9551 46.6979 21.4551 47.213 21.4248 47.8494C21.4097 48.4706 20.9097 48.9403 20.3036 48.9403Z" fill="#1576ED"/>
<path d="M22.8491 37.787C12.44 37.787 1.89453 35.3779 1.89453 30.7567C1.89453 25.0446 18.046 22.7718 30.0006 24.1052C30.6218 24.1809 31.0763 24.7415 31.0006 25.3628C30.9248 25.984 30.3642 26.4385 29.743 26.3628C27.546 26.1203 25.2279 25.984 22.8491 25.984C11.44 25.984 4.16726 28.8022 4.16726 30.7415C4.16726 32.6809 11.44 35.4991 22.8491 35.4991C34.2582 35.4991 41.5309 32.6809 41.5309 30.7415C41.5309 29.9537 39.9854 28.6809 36.5309 27.6658C36.3883 27.6235 36.2556 27.5534 36.1402 27.4595C36.0249 27.3657 35.9292 27.2499 35.8588 27.1189C35.7884 26.9879 35.7446 26.8443 35.7299 26.6964C35.7152 26.5484 35.73 26.399 35.7733 26.2567C35.9551 25.6506 36.5764 25.3022 37.1824 25.4991C41.5157 26.787 43.8036 28.6052 43.8036 30.7567C43.8188 35.3779 33.2733 37.787 22.8491 37.787Z" fill="#1576ED"/>
<path d="M96.9705 8.89489V23.0009C96.9705 24.0464 96.122 24.8949 95.0766 24.8949H72.0311C70.9857 24.8949 70.1523 24.0464 70.1523 23.0009V3.03125H80.5917L84.6523 7.00095H95.0766C96.122 7.00095 96.9705 7.84943 96.9705 8.89489Z" fill="#DDEBFD"/>
<path opacity="0.3" d="M95.0754 7.01562H81.3633V12.5459C81.3633 13.8117 81.8661 15.0257 82.7612 15.9208C83.6562 16.8158 84.8702 17.3187 86.136 17.3187H96.9693V8.89441C96.9693 7.84896 96.1209 7.01562 95.0754 7.01562Z" fill="white"/>
<path d="M95.0767 26.0294H84.5464C83.9252 26.0294 83.41 25.5143 83.41 24.8931C83.41 24.2718 83.9252 23.7567 84.5464 23.7567H95.0767C95.5009 23.7567 95.8343 23.4234 95.8343 22.9991V8.89305C95.8343 8.46881 95.5009 8.13548 95.0767 8.13548H84.6525C84.3589 8.13373 84.077 8.01992 83.8646 7.81729L80.1373 4.16578H71.304V22.9991C71.304 23.4234 71.6373 23.7567 72.0464 23.7567H78.5767C79.1979 23.7567 79.7131 24.2718 79.7131 24.8931C79.7131 25.5143 79.1979 26.0294 78.5767 26.0294H72.0464C70.3797 26.0294 69.0312 24.6658 69.0312 22.9991V3.04457C69.0312 2.42335 69.5464 1.9082 70.1676 1.9082H80.607C80.91 1.9082 81.1828 2.02942 81.3949 2.22638L85.1222 5.8779H95.0767C96.7434 5.8779 98.107 7.24154 98.107 8.9082V23.0143C98.107 24.6809 96.7434 26.0294 95.0767 26.0294Z" fill="#1576ED"/>
<path d="M89.0304 13.9094H78.0758C77.4546 13.9094 76.9395 13.3943 76.9395 12.7731C76.9395 12.1519 77.4546 11.6367 78.0758 11.6367H89.0304C89.3317 11.6367 89.6208 11.7564 89.8339 11.9696C90.047 12.1827 90.1667 12.4717 90.1667 12.7731C90.1667 13.0745 90.047 13.3635 89.8339 13.5766C89.6208 13.7897 89.3317 13.9094 89.0304 13.9094ZM89.0304 20.1822H78.0758C77.4546 20.1822 76.9395 19.667 76.9395 19.0458C76.9395 18.4246 77.4546 17.9094 78.0758 17.9094H89.0304C89.1796 17.9094 89.3274 17.9388 89.4652 17.9959C89.6031 18.0531 89.7284 18.1368 89.8339 18.2423C89.9394 18.3478 90.0231 18.4731 90.0802 18.6109C90.1373 18.7488 90.1667 18.8966 90.1667 19.0458C90.1667 19.195 90.1373 19.3428 90.0802 19.4807C90.0231 19.6185 89.9394 19.7438 89.8339 19.8493C89.7284 19.9549 89.6031 20.0386 89.4652 20.0957C89.3274 20.1528 89.1796 20.1822 89.0304 20.1822Z" fill="#1576ED"/>
<path d="M96.9705 44.9398V59.0459C96.9705 60.0913 96.122 60.9398 95.0766 60.9398H72.0311C70.9857 60.9398 70.1523 60.0913 70.1523 59.0459V39.0762H80.5917L84.6523 43.0459H95.0766C96.122 43.0459 96.9705 43.8944 96.9705 44.9398Z" fill="#DDEBFD"/>
<path opacity="0.3" d="M95.0754 43.0449H81.3633V48.5752C81.3633 49.841 81.8661 51.055 82.7612 51.9501C83.6562 52.8451 84.8702 53.348 86.136 53.348H96.9693V44.9389C96.9693 43.8783 96.1209 43.0449 95.0754 43.0449Z" fill="white"/>
<path d="M95.0767 62.0602H91.5161C91.2147 62.0602 90.9257 61.9405 90.7126 61.7274C90.4995 61.5142 90.3797 61.2252 90.3797 60.9238C90.3797 60.6224 90.4995 60.3334 90.7126 60.1203C90.9257 59.9072 91.2147 59.7875 91.5161 59.7875H95.0767C95.5009 59.7875 95.8343 59.4541 95.8343 59.0299V44.9238C95.8343 44.4996 95.5009 44.1663 95.0767 44.1663H84.6525C84.3589 44.1645 84.077 44.0507 83.8646 43.8481L80.1373 40.1966H71.304V59.0299C71.304 59.4541 71.6373 59.7875 72.0464 59.7875H85.1525C85.7737 59.7875 86.2888 60.3026 86.2888 60.9238C86.2888 61.545 85.7737 62.0602 85.1525 62.0602H72.0464C70.3797 62.0602 69.0312 60.6966 69.0312 59.0299V39.0602C69.0312 38.439 69.5464 37.9238 70.1676 37.9238H80.607C80.91 37.9238 81.1828 38.045 81.3949 38.242L85.1222 41.8935H95.0767C96.7434 41.8935 98.107 43.2572 98.107 44.9238V59.0299C98.107 59.8336 97.7877 60.6043 97.2195 61.1726C96.6512 61.7409 95.8804 62.0602 95.0767 62.0602Z" fill="#1576ED"/>
<path d="M89.0304 49.9387H78.0758C77.4546 49.9387 76.9395 49.4236 76.9395 48.8024C76.9395 48.1812 77.4546 47.666 78.0758 47.666H89.0304C89.3317 47.666 89.6208 47.7857 89.8339 47.9989C90.047 48.212 90.1667 48.501 90.1667 48.8024C90.1667 49.1038 90.047 49.3928 89.8339 49.6059C89.6208 49.819 89.3317 49.9387 89.0304 49.9387ZM89.0304 56.2115H78.0758C77.4546 56.2115 76.9395 55.6963 76.9395 55.0751C76.9395 54.4539 77.4546 53.9387 78.0758 53.9387H89.0304C89.3317 53.9387 89.6208 54.0585 89.8339 54.2716C90.047 54.4847 90.1667 54.7737 90.1667 55.0751C90.1667 55.3765 90.047 55.6655 89.8339 55.8786C89.6208 56.0917 89.3317 56.2115 89.0304 56.2115Z" fill="#1576ED"/>
<path d="M96.9705 80.9691V95.0752C96.9705 96.1206 96.122 96.9691 95.0766 96.9691H72.0311C70.9857 96.9691 70.1523 96.1206 70.1523 95.0752V75.1055H80.5917L84.6523 79.0752H95.0766C96.122 79.0752 96.9705 79.9236 96.9705 80.9691Z" fill="#DDEBFD"/>
<path opacity="0.3" d="M95.0754 79.0762H81.3633V84.6065C81.3633 85.8723 81.8661 87.0862 82.7612 87.9813C83.6562 88.8764 84.8702 89.3792 86.136 89.3792H96.9693V80.9701C96.9693 79.9095 96.1209 79.0762 95.0754 79.0762Z" fill="white"/>
<path d="M95.0762 98.09H72.0308C70.3641 98.09 69.0156 96.7263 69.0156 95.0597V75.1051C69.0156 74.4839 69.5308 73.9688 70.152 73.9688H80.5914C80.8944 73.9688 81.1671 74.09 81.3793 74.2869L85.1065 77.9384H95.0611C96.7278 77.9384 98.0914 79.3021 98.0914 80.9687V86.0294C98.0914 86.6506 97.5762 87.1657 96.955 87.1657C96.3338 87.1657 95.8187 86.6506 95.8187 86.0294V80.9687C95.8187 80.5445 95.4853 80.2112 95.0611 80.2112H84.6368C84.3433 80.2094 84.0614 80.0956 83.849 79.893L80.1217 76.2415H71.2884V95.0748C71.2884 95.4991 71.6217 95.8324 72.0308 95.8324H95.0762C95.5005 95.8324 95.8338 95.4991 95.8338 95.0748V91.4839C95.8338 90.8627 96.349 90.3475 96.9702 90.3475C97.5914 90.3475 98.1065 90.8627 98.1065 91.4839V95.0748C98.1065 96.7415 96.7429 98.09 95.0762 98.09Z" fill="#1576ED"/>
<path d="M89.0303 85.9691H78.0758C77.4545 85.9691 76.9394 85.454 76.9394 84.8327C76.9394 84.2115 77.4545 83.6964 78.0758 83.6964H89.0303C89.3317 83.6964 89.6207 83.8161 89.8338 84.0292C90.0469 84.2423 90.1667 84.5314 90.1667 84.8327C90.1667 85.1341 90.0469 85.4232 89.8338 85.6363C89.6207 85.8494 89.3317 85.9691 89.0303 85.9691ZM89.0303 92.2418H78.0758C77.4545 92.2418 76.9394 91.7267 76.9394 91.1055C76.9394 90.4843 77.4545 89.9691 78.0758 89.9691H89.0303C89.3317 89.9691 89.6207 90.0888 89.8338 90.3019C90.0469 90.515 90.1667 90.8041 90.1667 91.1055C90.1667 91.4069 90.0469 91.6959 89.8338 91.909C89.6207 92.1221 89.3317 92.2418 89.0303 92.2418ZM70.1364 52.3782H43.6364C43.0152 52.3782 42.5 51.863 42.5 51.2418C42.5 50.6206 43.0152 50.1055 43.6364 50.1055H70.1364C70.4377 50.1055 70.7268 50.2252 70.9399 50.4383C71.153 50.6514 71.2727 50.9405 71.2727 51.2418C71.2727 51.5432 71.153 51.8323 70.9399 52.0454C70.7268 52.2585 70.4377 52.3782 70.1364 52.3782ZM70.1364 89.1661H53.4091C52.7879 89.1661 52.2727 88.6509 52.2727 88.0297V76.1964C52.2727 75.895 52.3925 75.606 52.6056 75.3928C52.8187 75.1797 53.1077 75.06 53.4091 75.06C53.7105 75.06 53.9995 75.1797 54.2126 75.3928C54.4257 75.606 54.5455 75.895 54.5455 76.1964V86.8933H70.1364C70.4377 86.8933 70.7268 87.0131 70.9399 87.2262C71.153 87.4393 71.2727 87.7283 71.2727 88.0297C71.2727 88.3311 71.153 88.6201 70.9399 88.8332C70.7268 89.0463 70.4377 89.1661 70.1364 89.1661Z" fill="#1576ED"/>
<path d="M53.4098 68.4391C52.7886 68.4391 52.2734 67.9239 52.2734 67.3027V41.9239C52.2734 41.3027 52.7886 40.7876 53.4098 40.7876C54.031 40.7876 54.5462 41.3027 54.5462 41.9239V67.2876C54.5462 67.9239 54.031 68.4391 53.4098 68.4391ZM53.4098 35.2573C52.7886 35.2573 52.2734 34.7421 52.2734 34.1209V14.4391C52.2734 13.8179 52.7886 13.3027 53.4098 13.3027H70.1371C70.7583 13.3027 71.2734 13.8179 71.2734 14.4391C71.2734 15.0603 70.7583 15.5755 70.1371 15.5755H54.5462V34.1209C54.5462 34.7573 54.031 35.2573 53.4098 35.2573Z" fill="#1576ED"/>
</svg>
