<svg width="100" height="101" viewBox="0 0 100 101" fill="none" xmlns="http://www.w3.org/2000/svg">
<path d="M85.0002 27.25C85.0002 27.25 85 71.109 85 74.5C85 80.299 69.33 85 50 85C30.67 85 15.0001 80.299 15.0001 74.5C15.0001 71.249 15 27.25 15 27.25" stroke="#FF7B00" stroke-width="3" stroke-linecap="round" stroke-linejoin="round"/>
<path d="M85 58.75C85 64.549 69.33 69.25 50 69.25C30.67 69.25 15 64.549 15 58.75" stroke="#FF7B00" stroke-width="3" stroke-linecap="round" stroke-linejoin="round"/>
<path d="M85 43C85 48.799 69.33 53.5 50 53.5C30.67 53.5 15 48.799 15 43" stroke="#FF7B00" stroke-width="3" stroke-linecap="round" stroke-linejoin="round"/>
<path d="M50 36C69.33 36 85 31.299 85 25.5C85 19.701 69.33 15 50 15C30.67 15 15 19.701 15 25.5C15 31.299 30.67 36 50 36Z" fill="#FFA44F" stroke="#FF7B00" stroke-width="3" stroke-linecap="round" stroke-linejoin="round"/>
</svg>
