<svg width="100" height="101" viewBox="0 0 100 101" fill="none" xmlns="http://www.w3.org/2000/svg">
<path d="M57.5453 50.7479C51.6634 49.0143 46.7401 45.4 43.7545 40.6239C40.7689 35.8477 39.9398 30.2596 41.4321 24.9711C42.9244 19.6826 46.6287 15.0811 51.8084 12.0818C56.988 9.08251 63.2635 7.90521 69.3865 8.78406C75.5096 9.6629 81.0316 12.5335 84.8544 16.8249C88.6771 21.1163 90.5205 26.514 90.0178 31.9446C89.5152 37.3752 86.7033 42.4407 82.1415 46.1335C77.5797 49.8264 71.6022 51.8761 65.3979 51.875C62.7281 51.8762 60.0758 51.4956 57.5453 50.7479ZM78.9597 32.5184V21.381L65.4037 15.5343L65.3614 15.5529L51.8496 21.3641V32.5184C51.8496 35.1596 53.872 38.529 56.3677 40.0245L65.4037 45.4369L74.4417 40.0245C76.9374 38.529 78.9597 35.1765 78.9597 32.5184Z" fill="#FFE588"/>
<path d="M78.9597 21.3818V32.5193C78.9597 35.1773 76.9373 38.5299 74.4416 40.0253L65.4037 45.4377L65.369 15.5656L65.3613 15.5537L65.4037 15.5352L78.9597 21.3818Z" fill="#7CB7FF"/>
<path d="M70.6582 60.8809V79.0005C70.6582 82.6437 64.2179 85.8036 54.7586 87.3971C50.1464 88.1482 45.4642 88.517 40.7735 88.4988C24.2657 88.4988 10.8906 84.2507 10.8906 79.0005V60.8809C10.8906 66.1294 24.2657 70.3775 40.7735 70.3775C57.2812 70.3775 70.6582 66.1294 70.6582 60.8809Z" fill="#DDEBFD"/>
<path d="M70.6582 60.5079V60.883C70.6582 66.1315 57.2812 70.3796 40.7735 70.3796C24.2657 70.3796 10.8906 66.1315 10.8906 60.883V42.8867C10.8906 48.1352 24.2657 52.385 40.7735 52.385C46.9906 52.385 52.7651 51.7818 57.5448 50.7493C61.771 51.995 66.3024 52.2128 70.6582 51.3796V60.5079Z" fill="#7CB7FF"/>
<path d="M65.3686 15.5646L65.4032 45.4367L56.3672 40.0243C53.8715 38.5288 51.8492 35.1594 51.8492 32.5182V21.3639L65.3609 15.5527L65.3686 15.5646ZM57.5448 50.7477C52.7651 51.7802 46.9906 52.3834 40.7735 52.3834C24.2657 52.3834 10.8906 48.1336 10.8906 42.8851V24.8888C10.8906 30.1356 24.2696 34.3872 40.7735 34.3872C40.9486 34.3872 41.1198 34.3872 41.2911 34.3855C42.1133 38.1305 44.0504 41.6173 46.9054 44.4914C49.7604 47.3655 53.4314 49.5241 57.5448 50.7477Z" fill="#DDEBFD"/>
<path d="M40.7735 15.3926C43.0652 15.3926 45.2973 15.4737 47.4408 15.6308C43.2015 19.6167 40.8474 24.8695 40.8562 30.3236C40.8558 31.6866 41.0014 33.0467 41.2911 34.3858C41.1198 34.3875 40.9486 34.3875 40.7735 34.3875C24.2696 34.3875 10.8906 30.136 10.8906 24.8892C10.8906 19.6424 24.2696 15.3926 40.7735 15.3926Z" fill="#7CB7FF"/>
<path d="M34.4434 43.2278C34.4434 43.5415 34.5853 43.8424 34.8379 44.0642C35.0905 44.286 35.4331 44.4106 35.7903 44.4106H45.6037C45.961 44.4106 46.3036 44.286 46.5562 44.0642C46.8088 43.8424 46.9507 43.5415 46.9507 43.2278C46.9507 42.9141 46.8088 42.6132 46.5562 42.3914C46.3036 42.1695 45.961 42.0449 45.6037 42.0449H35.7903C35.4331 42.0449 35.0905 42.1695 34.8379 42.3914C34.5853 42.6132 34.4434 42.9141 34.4434 43.2278ZM45.7961 59.9567H35.7903C35.4331 59.9567 35.0905 60.0813 34.8379 60.3032C34.5853 60.525 34.4434 60.8259 34.4434 61.1396C34.4434 61.4533 34.5853 61.7542 34.8379 61.976C35.0905 62.1978 35.4331 62.3224 35.7903 62.3224H45.7961C46.1534 62.3224 46.496 62.1978 46.7486 61.976C47.0012 61.7542 47.1431 61.4533 47.1431 61.1396C47.1431 60.8259 47.0012 60.525 46.7486 60.3032C46.496 60.0813 46.1534 59.9567 45.7961 59.9567ZM45.7961 78.2065H35.7903C35.4331 78.2065 35.0905 78.3311 34.8379 78.5529C34.5853 78.7748 34.4434 79.0756 34.4434 79.3893C34.4434 79.703 34.5853 80.0039 34.8379 80.2257C35.0905 80.4476 35.4331 80.5722 35.7903 80.5722H45.7961C46.1534 80.5722 46.496 80.4476 46.7486 80.2257C47.0012 80.0039 47.1431 79.703 47.1431 79.3893C47.1431 79.0756 47.0012 78.7748 46.7486 78.5529C46.496 78.3311 46.1534 78.2065 45.7961 78.2065Z" fill="#F4B844"/>
</svg>
