<svg width="100" height="101" viewBox="0 0 100 101" fill="none" xmlns="http://www.w3.org/2000/svg">
<path d="M75.8945 10.916V98.9368H9.89453V95.3118L9.91537 90.0827H67.5404V10.916H75.8945Z" fill="#7CC9F2"/>
<path d="M67.5417 2.0625V90.0833H1.5625V19.2292L18.6458 2.0625H67.5417Z" fill="#C1ECFB"/>
<path d="M18.6354 2.06445V19.1395H1.5625L18.6354 2.06445Z" fill="#7CC9F2"/>
<path d="M84.6367 70.1016L88.7596 84.1245L92.9096 70.1099L84.6367 70.1016Z" fill="#FCAC44"/>
<path d="M92.9233 37.0234H84.6504V70.1068H92.9233V37.0234Z" fill="#FF953F"/>
<path d="M92.9596 21.0202V26.1452L92.9388 37.0202H84.668L84.6888 21.0202C84.6888 20.4771 84.7958 19.9394 85.0036 19.4376C85.2114 18.9359 85.516 18.48 85.9 18.096C86.284 17.712 86.7399 17.4074 87.2417 17.1996C87.7434 16.9917 88.2811 16.8848 88.8242 16.8848C89.3673 16.8848 89.905 16.9917 90.4068 17.1996C90.9085 17.4074 91.3644 17.712 91.7484 18.096C92.1324 18.48 92.437 18.9359 92.6449 19.4376C92.8527 19.9394 92.9596 20.4771 92.9596 21.0202Z" fill="#FCAC44"/>
<path d="M40.1034 14.0931C38.8855 13.5685 37.7235 12.9229 36.6346 12.166C35.5457 12.9221 34.3836 13.567 33.1659 14.091C31.6209 14.661 29.9997 14.998 28.3555 15.091C28.3555 15.091 29.1013 23.9098 29.9721 25.4306C31.5123 27.9571 33.8619 29.8881 36.6388 30.9098C39.4157 29.8881 41.7653 27.9571 43.3055 25.4306C44.1763 23.9098 44.9221 15.091 44.9221 15.091C43.2752 14.9997 41.6511 14.6633 40.1034 14.0931ZM54.6325 44.9077H18.6367C18.2223 44.9077 17.8249 44.7431 17.5319 44.45C17.2388 44.157 17.0742 43.7596 17.0742 43.3452C17.0742 42.9308 17.2388 42.5333 17.5319 42.2403C17.8249 41.9473 18.2223 41.7827 18.6367 41.7827H54.6325C55.047 41.7827 55.4444 41.9473 55.7374 42.2403C56.0304 42.5333 56.195 42.9308 56.195 43.3452C56.195 43.7596 56.0304 44.157 55.7374 44.45C55.4444 44.7431 55.047 44.9077 54.6325 44.9077ZM54.6325 53.6785H36.6346C36.2202 53.6785 35.8228 53.5139 35.5298 53.2209C35.2368 52.9278 35.0721 52.5304 35.0721 52.116C35.0721 51.7016 35.2368 51.3042 35.5298 51.0112C35.8228 50.7181 36.2202 50.5535 36.6346 50.5535H54.6325C55.047 50.5535 55.4444 50.7181 55.7374 51.0112C56.0304 51.3042 56.195 51.7016 56.195 52.116C56.195 52.5304 56.0304 52.9278 55.7374 53.2209C55.4444 53.5139 55.047 53.6785 54.6325 53.6785ZM31.0826 53.6785H18.6367C18.2223 53.6785 17.8249 53.5139 17.5319 53.2209C17.2388 52.9278 17.0742 52.5304 17.0742 52.116C17.0742 51.7016 17.2388 51.3042 17.5319 51.0112C17.8249 50.7181 18.2223 50.5535 18.6367 50.5535H31.0826C31.497 50.5535 31.8944 50.7181 32.1874 51.0112C32.4804 51.3042 32.6451 51.7016 32.6451 52.116C32.6451 52.5304 32.4804 52.9278 32.1874 53.2209C31.8944 53.5139 31.497 53.6785 31.0826 53.6785ZM54.6325 62.4514H18.6367C18.2223 62.4514 17.8249 62.2868 17.5319 61.9938C17.2388 61.7008 17.0742 61.3033 17.0742 60.8889C17.0742 60.4745 17.2388 60.0771 17.5319 59.7841C17.8249 59.4911 18.2223 59.3264 18.6367 59.3264H54.6325C55.047 59.3264 55.4444 59.4911 55.7374 59.7841C56.0304 60.0771 56.195 60.4745 56.195 60.8889C56.195 61.3033 56.0304 61.7008 55.7374 61.9938C55.4444 62.2868 55.047 62.4514 54.6325 62.4514ZM54.6325 71.2243H48.9471C48.5327 71.2243 48.1353 71.0597 47.8423 70.7667C47.5493 70.4737 47.3846 70.0763 47.3846 69.6618C47.3846 69.2474 47.5493 68.85 47.8423 68.557C48.1353 68.264 48.5327 68.0993 48.9471 68.0993H54.6325C55.047 68.0993 55.4444 68.264 55.7374 68.557C56.0304 68.85 56.195 69.2474 56.195 69.6618C56.195 70.0763 56.0304 70.4737 55.7374 70.7667C55.4444 71.0597 55.047 71.2243 54.6325 71.2243ZM43.5263 71.2243H18.6367C18.2223 71.2243 17.8249 71.0597 17.5319 70.7667C17.2388 70.4737 17.0742 70.0763 17.0742 69.6618C17.0742 69.2474 17.2388 68.85 17.5319 68.557C17.8249 68.264 18.2223 68.0993 18.6367 68.0993H43.5263C43.9407 68.0993 44.3381 68.264 44.6312 68.557C44.9242 68.85 45.0888 69.2474 45.0888 69.6618C45.0888 70.0763 44.9242 70.4737 44.6312 70.7667C44.3381 71.0597 43.9407 71.2243 43.5263 71.2243ZM54.6325 79.9952H18.6367C18.2223 79.9952 17.8249 79.8306 17.5319 79.5375C17.2388 79.2445 17.0742 78.8471 17.0742 78.4327C17.0742 78.0183 17.2388 77.6208 17.5319 77.3278C17.8249 77.0348 18.2223 76.8702 18.6367 76.8702H54.6325C55.047 76.8702 55.4444 77.0348 55.7374 77.3278C56.0304 77.6208 56.195 78.0183 56.195 78.4327C56.195 78.8471 56.0304 79.2445 55.7374 79.5375C55.4444 79.8306 55.047 79.9952 54.6325 79.9952Z" fill="#7CC9F2"/>
<path d="M99.9987 26.8132V37.1882C99.9987 37.6026 99.8341 38 99.5411 38.293C99.248 38.586 98.8506 38.7507 98.4362 38.7507C98.0218 38.7507 97.6244 38.586 97.3313 38.293C97.0383 38 96.8737 37.6026 96.8737 37.1882V26.8132C96.8726 26.6367 96.802 26.4677 96.6772 26.343C96.5524 26.2182 96.3835 26.1476 96.207 26.1465H92.957V23.0215H96.207C97.2115 23.0253 98.1737 23.426 98.8839 24.1363C99.5941 24.8465 99.9949 25.8087 99.9987 26.8132Z" fill="#FF953F"/>
<path d="M36.8197 23.7158C36.6145 23.716 36.4114 23.6756 36.2219 23.5969C36.0324 23.5183 35.8603 23.4029 35.7155 23.2575L34.0364 21.5783C33.8829 21.4353 33.7597 21.2628 33.6743 21.0711C33.5889 20.8795 33.543 20.6726 33.5393 20.4628C33.5356 20.253 33.5742 20.0446 33.6528 19.85C33.7314 19.6555 33.8483 19.4787 33.9967 19.3303C34.1451 19.182 34.3218 19.065 34.5164 18.9864C34.7109 18.9078 34.9193 18.8692 35.1291 18.8729C35.3389 18.8766 35.5458 18.9226 35.7375 19.008C35.9292 19.0934 36.1017 19.2165 36.2447 19.37L36.8197 19.9429L39.0739 17.6908C39.3701 17.4148 39.7618 17.2646 40.1666 17.2717C40.5714 17.2789 40.9576 17.4429 41.2439 17.7291C41.5302 18.0154 41.6942 18.4016 41.7013 18.8064C41.7085 19.2112 41.5582 19.603 41.2822 19.8992L37.9176 23.2575C37.6265 23.5493 37.2318 23.7141 36.8197 23.7158Z" fill="#C1ECFB"/>
</svg>
