<svg width="111" height="111" viewBox="0 0 111 111" fill="none" xmlns="http://www.w3.org/2000/svg">
<path d="M66.2054 30.8061C66.19 30.7811 66.1746 30.756 66.1573 30.731L66.1033 30.7657C62.7945 29.5516 59.2217 28.8906 55.4986 28.8906C51.7754 28.8906 48.0138 29.594 44.6298 30.8697L44.5682 30.8293C44.5489 30.8582 44.5315 30.8871 44.5123 30.916C32.8881 35.356 24.6074 46.6159 24.6074 59.7818C24.6074 76.8153 38.4651 90.6729 55.4986 90.6729C72.5321 90.6729 86.3897 76.8153 86.3897 59.7818C86.3897 46.5099 77.9761 35.1691 66.2035 30.8061H66.2054ZM82.6839 69.1358C79.1631 71.4059 75.4477 73.2058 71.6186 74.497C73.1641 70.3942 74.1335 66.1238 74.49 61.7859C74.5131 61.5084 74.5304 61.2309 74.5478 60.9534H84.2237C84.108 63.8074 83.5742 66.5516 82.6839 69.1339V69.1358ZM54.431 31.0547V40.615C54.0841 40.6362 53.7372 40.6593 53.3903 40.6882C49.0544 41.0447 44.784 42.016 40.6793 43.5615C41.9531 39.7883 43.7145 36.1326 45.9267 32.6716C48.6035 31.7234 51.4594 31.1646 54.429 31.0547H54.431ZM72.5012 58.8163H56.57V42.6731C61.2605 42.6038 65.926 43.2821 70.4855 44.6966C71.9192 49.3235 72.5956 54.0603 72.5032 58.8182L72.5012 58.8163ZM56.5681 40.536V31.0547C59.4414 31.1607 62.2067 31.6907 64.8064 32.581C66.7855 35.6643 68.4062 38.8941 69.6395 42.2203C65.346 41.037 60.9676 40.4724 56.5681 40.5341V40.536ZM40.5405 45.8991C44.73 44.2206 49.1122 43.1819 53.5676 42.8157C53.8548 42.7926 54.1438 42.7733 54.431 42.7541V58.8144H38.2916C38.2088 54.5594 38.7387 50.3256 39.8757 46.1727C40.0973 46.0802 40.3151 45.9858 40.5405 45.8971V45.8991ZM41.2478 73.9343C39.7292 69.9568 38.7773 65.8174 38.4323 61.6106C38.415 61.3909 38.4015 61.1731 38.3861 60.9534H54.4329V76.8076C54.1438 76.7902 53.8567 76.7709 53.5676 76.7459C49.3627 76.4009 45.2214 75.4509 41.2478 73.9323V73.9343ZM36.1545 58.8163H26.7696C26.8255 57.1224 27.024 55.4651 27.3612 53.856C29.5909 51.9636 32.9864 49.4545 37.384 47.302C36.4917 51.0964 36.0813 54.9486 36.1526 58.8163H36.1545ZM26.7754 60.9534H36.2432C36.2605 61.2309 36.2778 61.5084 36.301 61.7859C36.6093 65.538 37.3801 69.238 38.5807 72.8262C33.6088 70.5638 29.8028 67.7792 27.3612 65.7037C27.0375 64.162 26.8409 62.576 26.7754 60.9554V60.9534ZM53.3923 78.8772C53.7391 78.9062 54.086 78.9216 54.4329 78.9408V88.5088C52.7332 88.4471 51.0721 88.2371 49.4591 87.8921L49.5053 87.8536C47.4434 85.4293 44.6356 81.6041 42.3578 76.5994C45.9441 77.8 49.6441 78.5689 53.3942 78.8772H53.3923ZM56.5681 79.0218C56.7859 79.0256 57.0036 79.0353 57.2214 79.0353C60.8 79.0353 64.3632 78.619 67.8782 77.7942C65.7005 82.2439 63.1568 85.6683 61.2413 87.9095L61.2914 87.9519C59.7593 88.266 58.1811 88.451 56.57 88.5107V79.0237L56.5681 79.0218ZM56.5681 76.8904V60.9534H72.4068C72.3914 61.1731 72.3779 61.3909 72.3605 61.6106C71.9983 66.0101 70.9827 70.3403 69.3408 74.4835L69.2811 74.6357C69.1905 74.8612 69.098 75.079 69.0055 75.3006C64.9181 76.4202 60.7518 76.9521 56.5681 76.8904ZM74.6384 58.8163C74.7212 54.3493 74.1585 49.9016 72.956 45.5387C76.3188 46.7855 79.5813 48.4255 82.6839 50.4277C83.5974 53.0717 84.1331 55.8891 84.2295 58.8163H74.6364H74.6384ZM81.2849 47.0746C78.3538 45.4077 75.3032 44.0471 72.1775 43.0007C71.1426 39.9039 69.7956 36.8765 68.1422 33.9627C73.8348 36.7628 78.4713 41.3878 81.2849 47.0727V47.0746ZM42.5698 34.1111C40.8566 37.1559 39.4633 40.324 38.4208 43.5731C38.309 43.9199 38.203 44.2668 38.0989 44.6156C34.1234 46.3828 30.8377 48.4794 28.346 50.3448C30.8107 43.2744 35.9599 37.4546 42.5698 34.1111ZM28.346 69.2206C31.1499 71.3212 34.9443 73.705 39.5943 75.5858C41.4983 80.2937 43.9187 84.1189 46.0289 86.9267C37.7713 84.036 31.225 77.484 28.346 69.2226V69.2206ZM64.6927 87.0211C66.6005 84.4986 68.7588 81.1512 70.5703 77.0716C70.8073 77.0003 71.0463 76.9367 71.2833 76.8615L71.4433 76.8114C74.8234 75.7399 78.1206 74.2908 81.2868 72.489C77.924 79.2839 71.9559 84.5621 64.6946 87.0192L64.6927 87.0211Z" fill="#01395A"/>
<path d="M84.3682 58.9263L56.4043 58.9533L56.439 30.9065C73.1372 30.4055 85.7538 48.8399 84.3682 58.9263Z" fill="#01395A"/>
<path d="M66.714 8.35751C76.9853 8.39027 85.2525 17.1412 84.6108 27.3798C84.3449 31.6174 82.6741 35.4234 80.616 39.0637C77.0682 45.3382 72.4972 50.8189 67.4309 55.9083C66.9298 56.4113 66.4904 56.5635 65.9277 55.9931C59.8613 49.8476 54.3768 43.2743 50.7866 35.3232C48.7671 30.8524 47.9134 26.2466 49.3298 21.3904C51.5883 13.657 58.6588 8.33246 66.714 8.35751Z" fill="#286248" stroke="white" stroke-width="3" stroke-miterlimit="10"/>
<path d="M73.5546 32.9527C75.553 33.527 77.5129 32.5885 78.118 31.0507C78.7539 29.4377 77.6266 27.8594 77.5476 27.7535C79.1123 26.8111 79.7772 24.9399 79.1952 23.379C78.7192 22.1013 77.4724 21.2033 76.0252 21.0973C76.1716 19.0527 74.6762 17.2624 72.7279 17.0408C70.9087 16.8327 69.1455 18.0429 68.6714 19.8929C67.1529 19.943 65.8482 20.9277 65.4378 22.3017C64.904 24.0978 66.2047 25.5373 66.2626 25.599C65.9985 25.8148 64.8172 26.8265 64.7421 28.3875C64.6554 30.1816 66.0602 31.9834 68.2282 32.5712" fill="#6A994E"/>
<path d="M73.5546 32.9527C75.553 33.527 77.5129 32.5885 78.118 31.0507C78.7539 29.4377 77.6266 27.8594 77.5476 27.7535C79.1123 26.8111 79.7772 24.9399 79.1952 23.379C78.7192 22.1013 77.4724 21.2033 76.0252 21.0973C76.1716 19.0527 74.6762 17.2624 72.7279 17.0408C70.9087 16.8327 69.1455 18.0429 68.6714 19.8929C67.1529 19.943 65.8482 20.9277 65.4378 22.3017C64.904 24.0978 66.2047 25.5373 66.2626 25.599C65.9985 25.8148 64.8172 26.8265 64.7421 28.3875C64.6554 30.1816 66.0602 31.9834 68.2282 32.5712" stroke="#388361" stroke-width="2" stroke-linecap="round" stroke-linejoin="round"/>
<path d="M73.5664 32.9547C75.5647 33.5289 77.5246 32.5905 78.1297 31.0526C78.7656 29.4397 77.6383 27.8614 77.5593 27.7554C79.1241 26.8131 79.7889 24.9419 79.2069 23.3809C78.7309 22.1033 77.4841 21.2053 76.0369 21.0993C76.1833 19.0546 74.6879 17.2644 72.7396 17.0428C70.9205 16.8346 69.1572 18.0448 68.6831 19.8948C67.1646 19.9449 65.8599 20.9297 65.4495 22.3037C64.9157 24.0997 66.2165 25.5393 66.2743 25.6009C66.0103 25.8168 64.829 26.8285 64.7538 28.3894C64.6671 30.1835 66.0719 31.9854 68.2399 32.5731" fill="#286248"/>
<path d="M73.5664 32.9547C75.5647 33.5289 77.5246 32.5905 78.1297 31.0526C78.7656 29.4397 77.6383 27.8614 77.5593 27.7554C79.1241 26.8131 79.7889 24.9419 79.2069 23.3809C78.7309 22.1033 77.4841 21.2053 76.0369 21.0993C76.1833 19.0546 74.6879 17.2644 72.7396 17.0428C70.9205 16.8346 69.1572 18.0448 68.6831 19.8948C67.1646 19.9449 65.8599 20.9297 65.4495 22.3037C64.9157 24.0997 66.2165 25.5393 66.2743 25.6009C66.0103 25.8168 64.829 26.8285 64.7538 28.3894C64.6671 30.1835 66.0719 31.9854 68.2399 32.5731" stroke="#388361" stroke-width="2" stroke-linecap="round" stroke-linejoin="round"/>
<path d="M72.0957 23.0645V37.454" stroke="#388361" stroke-width="2" stroke-linecap="round" stroke-linejoin="round"/>
<path d="M74.9511 24.9062L72.0547 27.8027" stroke="#388361" stroke-width="2" stroke-linecap="round" stroke-linejoin="round"/>
<path d="M69.5078 27.4707L72.094 30.0568" stroke="#388361" stroke-width="2" stroke-linecap="round" stroke-linejoin="round"/>
<path d="M68.1042 30.834V39.29C68.1042 39.9452 67.5743 40.4771 66.9172 40.4771H58.7945C58.1393 40.4771 57.6074 39.9452 57.6074 39.29V30.8398" fill="#25D5B9"/>
<path d="M55.2344 33.436L57.9439 30.7246L62.8541 25.8163L62.8579 25.8105L67.7643 30.7208L70.4776 33.4322" fill="#286248"/>
<path d="M67.6902 30.7305V39.1865C67.6902 39.8417 67.1602 40.3736 66.5031 40.3736H58.3804C57.7252 40.3736 57.1934 39.8417 57.1934 39.1865V30.7362" fill="#286248"/>
<path d="M67.6902 30.7305V39.1865C67.6902 39.8417 67.1602 40.3736 66.5031 40.3736H58.3804C57.7252 40.3736 57.1934 39.8417 57.1934 39.1865V30.7362" stroke="#388361" stroke-width="2" stroke-miterlimit="10"/>
<path d="M54.8184 33.3325L57.5298 30.623L62.438 25.7128L62.4419 25.707L67.3502 30.6172L70.0616 33.3286" stroke="#388361" stroke-width="2" stroke-linecap="round" stroke-linejoin="round"/>
<path d="M64.3429 32.6289H60.5234V36.4484H64.3429V32.6289Z" fill="#388361"/>
</svg>
