<svg width="100" height="100" viewBox="0 0 100 100" fill="none" xmlns="http://www.w3.org/2000/svg">
<path d="M10 50C10 20.9091 20.9091 10 50 10C79.0909 10 90 20.9091 90 50C90 79.0909 79.0909 90 50 90C20.9091 90 10 79.0909 10 50Z" fill="#FF953F"/>
<path d="M49.832 45.834C54.2503 45.834 57.832 42.2523 57.832 37.834C57.832 33.4157 54.2503 29.834 49.832 29.834C45.4138 29.834 41.832 33.4157 41.832 37.834C41.832 42.2523 45.4138 45.834 49.832 45.834Z" fill="#FFC579"/>
<path d="M50.332 69.8339C53.3219 69.8397 56.2733 69.1476 58.9601 67.8108C61.6469 66.474 63.9976 64.5279 65.832 62.1218C65.1976 58.4014 63.2949 55.0286 60.4594 52.5977C57.6239 50.1669 54.0374 48.834 50.332 48.834C46.6267 48.834 43.0402 50.1669 40.2047 52.5977C37.3691 55.0286 35.4665 58.4014 34.832 62.1218C36.6665 64.5279 39.0172 66.474 41.704 67.8108C44.3907 69.1476 47.3422 69.8397 50.332 69.8339Z" fill="white"/>
</svg>
