<svg width="100" height="100" viewBox="0 0 100 100" fill="none" xmlns="http://www.w3.org/2000/svg">
<path d="M50.0004 77.8264C68.2508 77.8264 83.0438 71.6002 83.0438 63.9132C83.0438 56.2262 68.2508 50 50.0004 50C31.75 50 16.957 56.2262 16.957 63.9132C16.957 71.6002 31.75 77.8264 50.0004 77.8264Z" fill="#78EB7B"/>
<path d="M70.8699 30.8698C70.8699 40.5882 56.0316 61.131 51.3917 67.3189C51.2321 67.534 51.0245 67.7088 50.7853 67.8292C50.5461 67.9496 50.2821 68.0123 50.0143 68.0123C49.7465 68.0123 49.4824 67.9496 49.2432 67.8292C49.004 67.7088 48.7964 67.534 48.6369 67.3189C43.9691 61.131 29.1309 40.5882 29.1309 30.8698C29.1309 25.3348 31.3296 20.0265 35.2434 16.1126C39.1572 12.1988 44.4654 10 50.0004 10C55.5353 10 60.8435 12.1988 64.7573 16.1126C68.6711 20.0265 70.8699 25.3348 70.8699 30.8698Z" fill="#E82327"/>
<path d="M50.0004 10C44.4654 10 39.1572 12.1988 35.2434 16.1126C31.3296 20.0265 29.1309 25.3348 29.1309 30.8698C29.1309 40.5882 43.9691 61.131 48.6091 67.3189C48.7695 67.5365 48.9793 67.713 49.2211 67.834C49.4629 67.9549 49.73 68.0168 50.0004 68.0146V10Z" fill="#FF9AA4"/>
<path d="M60.4336 82.3479C77.4561 80.1496 89.9987 72.7338 89.9987 63.9129C89.9987 58.9563 86.0266 54.4554 79.564 51.0605" stroke="#191919" stroke-width="2" stroke-linecap="round" stroke-linejoin="round"/>
<path d="M20.4347 51.0605C13.9722 54.4554 10 58.9563 10 63.9303C10 74.4973 27.9095 83.0609 49.9999 83.0609" stroke="#191919" stroke-width="2" stroke-linecap="round" stroke-linejoin="round"/>
<path d="M43.043 89.9991L49.9995 83.0425L43.043 76.0859" stroke="#191919" stroke-width="2" stroke-linecap="round" stroke-linejoin="round"/>
<path d="M70.8699 30.8698C70.8699 40.5882 56.0316 61.131 51.3917 67.3189C51.2321 67.534 51.0245 67.7088 50.7853 67.8292C50.5461 67.9496 50.2821 68.0123 50.0143 68.0123C49.7465 68.0123 49.4824 67.9496 49.2432 67.8292C49.004 67.7088 48.7964 67.534 48.6369 67.3189C43.9691 61.131 29.1309 40.5882 29.1309 30.8698C29.1309 25.3348 31.3296 20.0265 35.2434 16.1126C39.1572 12.1988 44.4654 10 50.0004 10C55.5353 10 60.8435 12.1988 64.7573 16.1126C68.6711 20.0265 70.8699 25.3348 70.8699 30.8698Z" stroke="#191919" stroke-width="2" stroke-linecap="round" stroke-linejoin="round"/>
<path d="M49.9995 37.8253C51.8444 37.8253 53.6139 37.0924 54.9185 35.7878C56.223 34.4832 56.956 32.7137 56.956 30.8687C56.956 29.0237 56.223 27.2543 54.9185 25.9496C53.6139 24.645 51.8444 23.9121 49.9995 23.9121C48.1545 23.9121 46.3851 24.645 45.0805 25.9496C43.7759 27.2543 43.043 29.0237 43.043 30.8687C43.043 32.7137 43.7759 34.4832 45.0805 35.7878C46.3851 37.0924 48.1545 37.8253 49.9995 37.8253Z" fill="white"/>
<path d="M49.9995 37.8253C48.1545 37.8253 46.3851 37.0924 45.0805 35.7878C43.7759 34.4832 43.043 32.7137 43.043 30.8687C43.043 29.0237 43.7759 27.2543 45.0805 25.9496C46.3851 24.645 48.1545 23.9121 49.9995 23.9121V37.8253Z" fill="white"/>
<path d="M49.9995 37.8253C51.8444 37.8253 53.6139 37.0924 54.9185 35.7878C56.223 34.4832 56.956 32.7137 56.956 30.8687C56.956 29.0237 56.223 27.2543 54.9185 25.9496C53.6139 24.645 51.8444 23.9121 49.9995 23.9121C48.1545 23.9121 46.3851 24.645 45.0805 25.9496C43.7759 27.2543 43.043 29.0237 43.043 30.8687C43.043 32.7137 43.7759 34.4832 45.0805 35.7878C46.3851 37.0924 48.1545 37.8253 49.9995 37.8253Z" stroke="#191919" stroke-width="2" stroke-linecap="round" stroke-linejoin="round"/>
</svg>
