<svg width="100" height="101" viewBox="0 0 100 101" fill="none" xmlns="http://www.w3.org/2000/svg">
<path d="M77.025 83.4242C77.025 87.0617 64.7 89.9992 49.5125 89.9992C34.325 89.9992 22 87.0617 22 83.4242C22 80.1742 31.875 77.4992 44.825 76.9492H54.2C67.1625 77.4992 77.025 80.1742 77.025 83.4242Z" fill="#E3E2E1"/>
<path d="M49.5125 10C35.3875 10 23.9375 21.4375 23.9375 35.5625C23.9375 49.6875 49.5125 83.425 49.5125 83.425C49.5125 83.425 75.075 49.6875 75.075 35.5625C75.075 21.4375 63.6375 10 49.5125 10ZM49.5125 52.4875C40.1625 52.4875 32.5875 44.9125 32.5875 35.5625C32.5875 26.2125 40.1625 18.6375 49.5125 18.6375C58.8625 18.6375 66.4375 26.2125 66.4375 35.5625C66.4375 44.9125 58.8625 52.4875 49.5125 52.4875Z" fill="#E82327"/>
</svg>
