<svg width="100" height="100" viewBox="0 0 100 100" fill="none" xmlns="http://www.w3.org/2000/svg">
<path d="M50.0547 12.7691C57.31 12.7691 63.1916 18.6507 63.1916 25.906V48.3337C63.1916 55.589 57.31 61.4706 50.0547 61.4706C42.7994 61.4706 36.9178 55.589 36.9178 48.3337V25.906C36.9178 18.6507 42.7994 12.7691 50.0547 12.7691Z" fill="#FFA44F" stroke="#FFEF5E" stroke-width="4.30769"/>
<path d="M76.2623 47.6104C76.2707 47.2704 76.211 46.9323 76.0866 46.6158C75.9623 46.2993 75.7759 46.0108 75.5385 45.7675C75.301 45.5241 75.0172 45.3307 74.7039 45.1986C74.3905 45.0666 74.0539 44.9985 73.7139 44.9985C73.3738 44.9985 73.0372 45.0666 72.7239 45.1986C72.4105 45.3307 72.1268 45.5241 71.8893 45.7675C71.6518 46.0108 71.4655 46.2993 71.3411 46.6158C71.2168 46.9323 71.1571 47.2704 71.1654 47.6104C71.1654 59.2504 61.6947 68.7212 50.0547 68.7212C38.4147 68.7212 28.9439 59.2504 28.9439 47.6104C28.9522 47.2704 28.8925 46.9323 28.7682 46.6158C28.6439 46.2993 28.4575 46.0108 28.22 45.7675C27.9825 45.5241 27.6988 45.3307 27.3854 45.1986C27.0721 45.0666 26.7355 44.9985 26.3954 44.9985C26.0554 44.9985 25.7188 45.0666 25.4054 45.1986C25.0921 45.3307 24.8083 45.5241 24.5708 45.7675C24.3334 46.0108 24.147 46.2993 24.0227 46.6158C23.8983 46.9323 23.8386 47.2704 23.847 47.6104C23.847 61.2012 34.247 72.4088 47.5054 73.6935V84.2873H37.3116C36.6465 84.3037 36.0142 84.5793 35.5496 85.0555C35.085 85.5316 34.825 86.1705 34.825 86.8358C34.825 87.501 35.085 88.1399 35.5496 88.6161C36.0142 89.0922 36.6465 89.3679 37.3116 89.3842H62.7977C63.4628 89.3679 64.0951 89.0922 64.5597 88.6161C65.0243 88.1399 65.2843 87.501 65.2843 86.8358C65.2843 86.1705 65.0243 85.5316 64.5597 85.0555C64.0951 84.5793 63.4628 84.3037 62.7977 84.2873H52.6039V73.6919C65.8623 72.4073 76.2623 61.2012 76.2623 47.6104Z" fill="#7CB7FF"/>
</svg>
