<svg width="319" height="319" viewBox="0 0 319 319" fill="none" xmlns="http://www.w3.org/2000/svg">
<path d="M319 243.971H0V244.13H319V243.971Z" fill="#EBEBEB"/>
<path d="M151.207 215.516H28.0155C27.0504 215.515 26.1255 215.13 25.4437 214.447C24.7618 213.764 24.3789 212.839 24.3789 211.874V38.7012C24.3873 37.7416 24.774 36.8242 25.4549 36.148C26.1358 35.4719 27.0559 35.0917 28.0155 35.0901H151.207C152.173 35.0901 153.1 35.4739 153.783 36.1571C154.466 36.8403 154.85 37.7669 154.85 38.7331V211.874C154.85 212.84 154.466 213.766 153.783 214.449C153.1 215.133 152.173 215.516 151.207 215.516ZM28.0155 35.2177C27.0927 35.2194 26.2083 35.5871 25.5564 36.2402C24.9045 36.8933 24.5384 37.7784 24.5384 38.7012V211.874C24.5384 212.796 24.9045 213.681 25.5564 214.334C26.2083 214.988 27.0927 215.355 28.0155 215.357H151.207C152.13 215.355 153.015 214.988 153.668 214.335C154.321 213.682 154.689 212.797 154.69 211.874V38.7012C154.689 37.7778 154.321 36.8928 153.668 36.2398C153.015 35.5869 152.13 35.2194 151.207 35.2177H28.0155Z" fill="#EBEBEB"/>
<path d="M289.212 215.516H166.014C165.048 215.515 164.123 215.13 163.44 214.448C162.757 213.765 162.373 212.839 162.371 211.874V38.7012C162.381 37.7411 162.769 36.8236 163.451 36.1476C164.133 35.4717 165.054 35.0917 166.014 35.0901H289.212C290.17 35.0934 291.089 35.4743 291.768 36.1503C292.448 36.8262 292.834 37.7427 292.842 38.7012V211.874C292.842 212.837 292.46 213.762 291.779 214.445C291.099 215.128 290.176 215.513 289.212 215.516ZM166.014 35.2177C165.091 35.2194 164.206 35.5869 163.553 36.2398C162.9 36.8928 162.532 37.7778 162.531 38.7012V211.874C162.532 212.797 162.9 213.682 163.553 214.335C164.206 214.988 165.091 215.355 166.014 215.357H289.212C290.135 215.355 291.02 214.988 291.673 214.335C292.326 213.682 292.694 212.797 292.695 211.874V38.7012C292.694 37.7778 292.326 36.8928 291.673 36.2398C291.02 35.5869 290.135 35.2194 289.212 35.2177H166.014Z" fill="#EBEBEB"/>
<path d="M287.036 250.045H266.895V250.205H287.036V250.045Z" fill="#EBEBEB"/>
<path d="M213.946 248.317H192.631V248.476H213.946V248.317Z" fill="#EBEBEB"/>
<path d="M292.854 255.973H253.023V256.132H292.854V255.973Z" fill="#EBEBEB"/>
<path d="M45.7375 254.901H33.4688V255.06H45.7375V254.901Z" fill="#EBEBEB"/>
<path d="M70.7469 254.901H51.4219V255.06H70.7469V254.901Z" fill="#EBEBEB"/>
<path d="M155.762 252.207H120.953V252.367H155.762V252.207Z" fill="#EBEBEB"/>
<path d="M239.02 243.97V133.112H211.228V243.97H239.02Z" fill="#F0F0F0"/>
<path d="M237.496 160.796V136.348H212.754V160.796H237.496Z" fill="#F5F5F5"/>
<path d="M230.605 136.028H219.65C219.65 136.704 219.919 137.354 220.398 137.832C220.876 138.311 221.526 138.58 222.202 138.58H228.085C228.756 138.571 229.397 138.299 229.869 137.821C230.34 137.343 230.605 136.699 230.605 136.028Z" fill="#E6E6E6"/>
<path d="M237.496 187.444V162.996H212.754V187.444H237.496Z" fill="#F5F5F5"/>
<path d="M237.496 214.087V189.639H212.754V214.087H237.496Z" fill="#F5F5F5"/>
<path d="M237.496 240.73V216.281H212.754V240.73H237.496Z" fill="#F5F5F5"/>
<path d="M230.605 162.69H219.65C219.65 163.367 219.919 164.016 220.398 164.494C220.876 164.973 221.526 165.242 222.202 165.242H228.085C228.756 165.233 229.397 164.961 229.869 164.483C230.34 164.005 230.605 163.361 230.605 162.69Z" fill="#E6E6E6"/>
<path d="M230.605 189.315H219.65C219.65 189.992 219.919 190.641 220.398 191.119C220.876 191.598 221.526 191.867 222.202 191.867H228.085C228.756 191.858 229.397 191.586 229.869 191.108C230.34 190.63 230.605 189.986 230.605 189.315Z" fill="#E6E6E6"/>
<path d="M230.605 215.957H219.65C219.65 216.634 219.919 217.283 220.398 217.762C220.876 218.24 221.526 218.509 222.202 218.509H228.085C228.756 218.501 229.397 218.228 229.869 217.751C230.34 217.273 230.605 216.629 230.605 215.957Z" fill="#E6E6E6"/>
<path d="M252.902 243.97V133.112H239.019V243.97H252.902Z" fill="#F5F5F5"/>
<path d="M269.32 243.978V133.119H241.529V243.978H269.32Z" fill="#F0F0F0"/>
<path d="M267.793 160.796V136.348H243.051V160.796H267.793Z" fill="#F5F5F5"/>
<path d="M260.904 136.028H249.949C249.949 136.704 250.218 137.354 250.697 137.832C251.175 138.311 251.824 138.58 252.501 138.58H258.39C259.06 138.57 259.699 138.296 260.17 137.819C260.64 137.341 260.904 136.698 260.904 136.028Z" fill="#E6E6E6"/>
<path d="M267.793 187.439V162.99H243.051V187.439H267.793Z" fill="#F5F5F5"/>
<path d="M267.801 214.087V189.639H243.059V214.087H267.801Z" fill="#F5F5F5"/>
<path d="M267.793 240.73V216.281H243.051V240.73H267.793Z" fill="#F5F5F5"/>
<path d="M260.904 162.69H249.949C249.949 163.367 250.218 164.016 250.697 164.494C251.175 164.973 251.824 165.242 252.501 165.242H258.39C259.06 165.232 259.699 164.958 260.17 164.481C260.64 164.003 260.904 163.36 260.904 162.69Z" fill="#E6E6E6"/>
<path d="M260.904 189.315H249.949C249.949 189.992 250.218 190.641 250.697 191.119C251.175 191.598 251.824 191.867 252.501 191.867H258.39C259.06 191.857 259.699 191.583 260.17 191.106C260.64 190.628 260.904 189.985 260.904 189.315Z" fill="#E6E6E6"/>
<path d="M260.904 215.957H249.949C249.949 216.634 250.218 217.283 250.697 217.762C251.175 218.24 251.824 218.509 252.501 218.509H258.39C259.06 218.499 259.699 218.226 260.17 217.748C260.64 217.271 260.904 216.628 260.904 215.957Z" fill="#E6E6E6"/>
<path d="M283.203 243.97V133.112H269.32V243.97H283.203Z" fill="#F5F5F5"/>
<path d="M265.83 110.973H257.715V133.111H265.83V110.973Z" fill="#E0E0E0"/>
<path d="M232.232 133.113H263.188L267.795 97.2893H236.839L232.232 133.113Z" fill="#E6E6E6"/>
<path d="M228.697 133.113H262.396L267.009 97.2893H233.304L228.697 133.113Z" fill="#F0F0F0"/>
<path d="M259.94 130.293L263.819 100.11H235.766L231.881 130.293H259.94Z" fill="white"/>
<path d="M252.779 120.453C256.082 117.356 256.551 112.491 253.827 109.586C251.104 106.682 246.219 106.838 242.916 109.935C239.613 113.032 239.143 117.898 241.867 120.802C244.591 123.706 249.476 123.55 252.779 120.453Z" fill="#E6E6E6"/>
<path d="M115.095 243.971H201.672L201.672 60.999H115.095L115.095 243.971Z" fill="#E6E6E6"/>
<path d="M113.169 243.971H199.746L199.746 60.999H113.169L113.169 243.971Z" fill="#F5F5F5"/>
<path d="M196.293 240.093V64.8792H116.626L116.626 240.093H196.293Z" fill="white"/>
<path d="M118.082 240.093L118.082 64.8792H116.627L116.627 240.093H118.082Z" fill="#E6E6E6"/>
<path d="M114.604 121.705L198.322 121.705V116.499L114.604 116.499V121.705Z" fill="#F5F5F5"/>
<path d="M86.201 239.014H98.2656L98.2656 160.776H86.201L86.201 239.014Z" fill="#F0F0F0"/>
<path d="M36.443 243.971H95.9492V239.014H36.443V243.971Z" fill="#F0F0F0"/>
<path d="M86.2005 160.776H34.127V239.014H86.2005V160.776Z" fill="#F5F5F5"/>
<path d="M81.4537 170.403H38.8672V196.063H81.4537V170.403Z" fill="#F0F0F0"/>
<path d="M81.4537 203.727H38.8672V229.387H81.4537V203.727Z" fill="#F0F0F0"/>
<path d="M47.5059 187.757V178.723C47.5059 177.927 46.8603 177.281 46.064 177.281H45.426C44.6296 177.281 43.9841 177.927 43.9841 178.723V187.757C43.9841 188.554 44.6296 189.199 45.426 189.199H46.064C46.8603 189.199 47.5059 188.554 47.5059 187.757Z" fill="#F5F5F5"/>
<path d="M47.5 221.074V212.04C47.5 211.243 46.8545 210.598 46.0581 210.598H45.4201C44.6238 210.598 43.9782 211.243 43.9782 212.04V221.074C43.9782 221.87 44.6238 222.516 45.4201 222.516H46.0581C46.8545 222.516 47.5 221.87 47.5 221.074Z" fill="#F5F5F5"/>
<path d="M85.9568 116.582C84.6107 117.258 80.9422 116.531 82.1607 119.013C82.8667 120.31 83.7071 121.528 84.6681 122.649C86.0334 124.334 85.7782 126.165 84.1641 126.828C83.8124 126.953 83.5029 127.174 83.2709 127.466C82.5308 128.532 84.2853 129.961 85.1466 131.026C86.0079 132.092 86.3524 133.138 85.7208 133.936C85.0892 134.733 83.5516 134.484 82.3904 134.752C79.5896 135.39 82.467 139.218 82.1735 141.228C81.9693 142.58 80.8656 142.963 79.3727 143.142C78.1541 143.295 76.5272 143.403 76.457 144.654C76.3996 145.739 77.8096 146.964 78.1796 148.099C78.3562 148.589 78.4231 149.111 78.3757 149.629C78.3283 150.147 78.1677 150.649 77.9053 151.098C77.6582 151.475 77.3357 151.798 76.958 152.045C76.5803 152.292 76.1556 152.458 75.7106 152.533C74.3261 152.827 72.2335 152.533 72.1314 154.084C72.0867 154.779 72.5716 155.398 72.2335 156.042C72.0496 156.31 71.8092 156.535 71.5293 156.7C71.2493 156.866 70.9365 156.968 70.6129 156.999C69.2872 157.201 67.9369 157.177 66.6191 156.929C64.9922 156.629 62.5933 155.194 63.4737 153.816C63.6271 153.616 63.8192 153.449 64.0384 153.325C64.2576 153.202 64.4995 153.123 64.7497 153.095C65.1389 153.012 66.2745 153.133 66.4213 152.871C66.568 152.61 66.1788 151.595 66.1597 151.225C66.1211 150.209 66.2815 149.195 66.6318 148.24C67.0822 146.992 67.7984 145.858 68.7308 144.916C69.12 144.526 69.7325 144.239 69.8091 143.671C69.8066 143.032 69.5809 142.414 69.1711 141.923C68.5331 141.043 67.5824 140.207 67.2571 139.269C66.7084 137.802 68.0354 137.355 69.2604 136.998C70.3769 136.698 71.8124 136.309 71.4615 134.956C71.1871 133.98 69.9622 133.183 69.5921 132.232C69.0945 130.956 70.3003 130.911 71.1616 130.452C72.2845 129.859 72.5652 128.806 72.1633 127.466C71.5253 125.265 67.4485 122.152 69.5156 120.716C70.0451 120.353 70.53 120.231 70.849 119.683C71.168 119.134 71.2318 118.368 71.672 117.839C72.3674 116.997 73.8093 116.856 74.5622 116.072C76.1061 114.47 72.7694 111.606 75.8382 110.968C76.4869 110.888 77.102 110.635 77.6182 110.234C77.8989 109.972 78.1222 108.715 78.4348 108.626C79.832 108.237 82.3521 110.948 83.1433 111.784C84.0109 112.773 87.5774 115.772 85.9568 116.582Z" fill="#E0E0E0"/>
<path d="M61.9995 153.962C62.8289 152.424 66.4655 150.893 64.0475 149.113C62.75 148.231 61.3539 147.503 59.8877 146.944C57.7823 146.063 57.0359 144.034 58.1013 142.356C58.3509 142.004 58.5068 141.593 58.5543 141.163C58.6436 139.613 56.3277 139.249 55.0006 138.688C53.6736 138.127 52.7995 137.272 52.9399 136.059C53.0866 134.726 54.554 134.145 55.4345 133.157C57.5654 130.764 52.959 128.601 52.1615 126.387C51.6192 124.875 52.3848 123.835 53.6034 122.681C54.5923 121.762 55.9704 120.639 55.3579 119.318C54.8348 118.17 52.9335 117.793 52.002 116.856C51.5695 116.435 51.2258 115.932 50.9912 115.377C50.7567 114.821 50.6362 114.224 50.6367 113.621C50.652 112.563 51.0694 111.55 51.8043 110.788C52.8697 109.627 54.8794 108.638 54.133 106.96C53.7948 106.22 53.0356 105.888 52.9909 105.046C53.0053 104.67 53.0945 104.3 53.2533 103.958C53.4122 103.616 53.6374 103.309 53.916 103.056C54.9476 102.045 56.1538 101.23 57.4761 100.65C59.0711 99.9486 61.9421 99.9231 61.9421 101.882C61.8926 102.461 61.6341 103.003 61.2148 103.407C60.9149 103.732 59.8494 104.306 59.8622 104.683C59.875 105.059 60.7618 105.837 60.9723 106.207C61.5611 107.245 61.9608 108.379 62.1526 109.557C62.4261 111.117 62.4023 112.714 62.0824 114.265C61.9485 114.903 61.5593 115.58 61.7953 116.211C62.1273 116.835 62.6699 117.321 63.3265 117.583C64.341 118.093 65.6425 118.349 66.4527 119.095C67.7287 120.263 66.8036 121.564 65.8977 122.668C65.0747 123.669 63.9837 124.977 65.0491 126.126C65.8147 126.955 67.3204 127.006 68.1562 127.753C69.2727 128.754 68.2391 129.552 67.7224 130.553C67.0844 131.829 67.3651 133.105 68.4369 134.228C70.2106 136.072 75.4549 136.78 74.3831 139.498C74.1151 140.2 73.7451 140.627 73.7451 141.38C73.7451 142.133 74.1087 142.969 74.0067 143.786C73.8408 145.062 72.6477 146.121 72.3989 147.39C71.8949 149.987 76.3609 150.829 74.0386 153.413C73.4962 153.925 73.0923 154.566 72.8646 155.276C72.7562 155.71 73.2283 157.139 72.9986 157.426C71.9778 158.702 68.3029 157.483 67.1609 157.113C65.7573 156.648 61.0106 155.793 61.9995 153.962Z" fill="#F5F5F5"/>
<path d="M52.7109 150.498C52.7109 150.498 53.1512 160.776 69.9752 160.776C86.7993 160.776 87.2459 150.498 87.2459 150.498H52.7109Z" fill="#F0F0F0"/>
<path d="M159.499 272.784C227.817 272.784 283.201 269.551 283.201 265.562C283.201 261.573 227.817 258.34 159.499 258.34C91.1801 258.34 35.7969 261.573 35.7969 265.562C35.7969 269.551 91.1801 272.784 159.499 272.784Z" fill="#F5F5F5"/>
<path d="M200.037 260.312L194.921 260.235L193.74 248.355L198.863 248.432L200.037 260.312Z" fill="#FFB573"/>
<path d="M226.382 260.329H221.265L217.277 248.469H222.394L226.382 260.329Z" fill="#FFB573"/>
<path d="M220.58 259.736H226.82C226.922 259.737 227.021 259.771 227.101 259.835C227.181 259.899 227.237 259.988 227.26 260.087L228.268 264.643C228.294 264.753 228.293 264.868 228.267 264.978C228.241 265.089 228.19 265.192 228.118 265.279C228.046 265.367 227.955 265.437 227.851 265.484C227.748 265.53 227.635 265.552 227.522 265.549C225.512 265.517 224.045 265.395 221.518 265.395C219.961 265.395 215.266 265.561 213.116 265.561C210.966 265.561 210.685 263.437 211.565 263.239C215.508 262.378 218.481 261.191 219.744 260.049C219.976 259.848 220.273 259.737 220.58 259.736Z" fill="#263238"/>
<path d="M194.965 259.666L200.554 259.755C200.655 259.756 200.753 259.791 200.832 259.855C200.911 259.918 200.966 260.007 200.988 260.106L201.925 264.674C201.95 264.784 201.949 264.899 201.922 265.008C201.896 265.118 201.844 265.22 201.772 265.307C201.7 265.394 201.609 265.463 201.507 265.509C201.404 265.555 201.292 265.578 201.179 265.574C199.156 265.51 196.247 265.344 193.708 265.306C190.748 265.261 188.183 265.382 184.706 265.306C182.607 265.274 182.058 263.143 182.938 262.964C186.958 262.148 190.231 262.103 193.727 260.023C194.099 259.793 194.527 259.669 194.965 259.666Z" fill="#263238"/>
<path d="M198.112 107.713C196.492 111.308 194.689 114.818 192.708 118.227C191.719 119.931 190.686 121.621 189.563 123.28C188.445 124.981 187.236 126.618 185.939 128.186L185.435 128.786L185.18 129.086C185.09 129.188 185.033 129.265 184.854 129.45C184.123 130.273 183.185 130.885 182.137 131.223C181.487 131.427 180.804 131.498 180.127 131.434C179.53 131.383 178.945 131.232 178.398 130.987C177.609 130.629 176.89 130.134 176.273 129.526C175.399 128.654 174.648 127.667 174.04 126.591C173.507 125.669 173.024 124.72 172.592 123.746C171.016 120.062 169.836 116.221 169.07 112.288L172.745 111.145C173.53 112.817 174.34 114.546 175.189 116.192C176.037 117.838 176.905 119.484 177.843 120.996C178.283 121.734 178.762 122.447 179.278 123.134C179.683 123.691 180.155 124.196 180.682 124.639C180.873 124.786 181.02 124.818 180.943 124.754C180.837 124.696 180.72 124.66 180.599 124.646C180.4 124.623 180.199 124.638 180.006 124.69C179.623 124.811 179.565 124.901 179.61 124.818L180.318 123.842C182.39 120.835 184.278 117.705 185.971 114.469C187.725 111.209 189.435 107.802 191.037 104.504L198.112 107.713Z" fill="#FFB573"/>
<path d="M200.242 104.505C201.62 109.2 191.904 122.005 191.904 122.005L182.098 115.701C183.946 111.642 186.224 107.792 188.892 104.217C192.905 99.0688 198.724 99.3495 200.242 104.505Z" fill="#52B686"/>
<path opacity="0.2" d="M200.242 104.505C201.62 109.2 191.904 122.005 191.904 122.005L182.098 115.701C183.946 111.642 186.224 107.792 188.892 104.217C192.905 99.0688 198.724 99.3495 200.242 104.505Z" fill="black"/>
<path opacity="0.2" d="M194.265 110.017C192.249 110.878 189.282 115.759 187.738 119.332L191.898 122.005C194.222 118.898 196.312 115.622 198.15 112.205C196.836 110.764 195.33 109.564 194.265 110.017Z" fill="black"/>
<path d="M172.654 112.985L173.93 107.211L168.106 107.166C168.106 107.166 166.549 111.504 169.681 113.546L172.654 112.985Z" fill="#FFB573"/>
<path d="M173.247 101.799L168.577 103.477L168.086 107.164L173.911 107.209L173.247 101.799Z" fill="#FFB573"/>
<path opacity="0.2" d="M193.746 248.355L194.352 254.48L199.469 254.563L198.869 248.438L193.746 248.355Z" fill="black"/>
<path opacity="0.2" d="M222.394 248.477H217.277L219.332 254.589H224.455L222.394 248.477Z" fill="black"/>
<path d="M223.071 102.425C217.552 121.878 218.668 142.524 218.171 146.703C214.164 146.415 199.075 145.286 190.852 144.674C187.266 115.523 194.437 100.55 194.437 100.55C194.437 100.55 196.198 100.211 198.584 99.9626C199.331 99.8861 200.141 99.8223 200.983 99.7776C201.449 99.7776 201.921 99.7329 202.399 99.7266C206.283 99.7929 210.16 100.08 214.011 100.588C214.738 100.677 215.478 100.792 216.199 100.907C216.92 101.022 217.514 101.143 218.113 101.264C220.921 101.819 223.071 102.425 223.071 102.425Z" fill="#52B686"/>
<path opacity="0.2" d="M223.071 102.425C217.552 121.878 218.668 142.524 218.171 146.703C214.164 146.415 199.075 145.286 190.852 144.674C187.266 115.523 194.437 100.55 194.437 100.55C194.437 100.55 196.198 100.211 198.584 99.9626C199.331 99.8861 200.141 99.8223 200.983 99.7776C201.449 99.7776 201.921 99.7329 202.399 99.7266C206.283 99.7929 210.16 100.08 214.011 100.588C214.738 100.677 215.478 100.792 216.199 100.907C216.92 101.022 217.514 101.143 218.113 101.264C220.921 101.819 223.071 102.425 223.071 102.425Z" fill="black"/>
<path opacity="0.2" d="M217.238 110.77C216.747 112.652 217.308 121.239 219.273 123.357C219.541 120.607 219.911 117.736 220.371 114.802L217.238 110.77Z" fill="black"/>
<path d="M213.832 87.4062C212.823 91.0875 211.579 97.8822 214.01 100.568C211.828 102.438 209.002 104.568 204.555 104.396C200.108 104.224 201.103 101.206 202.399 99.7069C206.635 99.0178 206.762 95.9172 206.227 92.9632L213.832 87.4062Z" fill="#FFB573"/>
<path d="M213.6 99.5273C213.6 99.5273 211.763 102.558 204.375 104.402C205.6 105.537 206.193 108.23 206.193 108.23C206.193 108.23 215.833 105.907 215.54 100.484C214.952 100.059 214.296 99.7355 213.6 99.5273Z" fill="#263238"/>
<path d="M201.747 107.535C201.747 107.535 202.717 105.2 204.375 104.402C203.603 103.605 202.461 101.212 203.138 99.4195C202.565 99.3738 201.99 99.4103 201.428 99.5279C201.428 99.5279 198.506 103.209 201.747 107.535Z" fill="#263238"/>
<path d="M204.057 107.605C203.974 108.103 203.681 108.473 203.419 108.422C203.158 108.371 202.998 107.931 203.087 107.433C203.177 106.935 203.47 106.559 203.725 106.61C203.981 106.661 204.159 107.101 204.057 107.605Z" fill="#263238"/>
<path d="M203.624 110.476C203.58 110.986 203.325 111.375 203.05 111.35C202.776 111.324 202.591 110.897 202.636 110.393C202.68 109.889 202.935 109.493 203.21 109.519C203.484 109.544 203.669 109.972 203.624 110.476Z" fill="#263238"/>
<path opacity="0.2" d="M210.743 89.6973L206.277 92.983C206.411 93.6704 206.479 94.3689 206.482 95.0692C208.096 94.9544 210.412 93.3721 210.705 91.7197C210.835 91.0529 210.848 90.3685 210.743 89.6973Z" fill="black"/>
<path d="M203.586 73.5045C199.604 73.4152 198.801 83.0362 201.384 84.7142C203.968 86.3921 211.037 73.664 203.586 73.5045Z" fill="#263238"/>
<path d="M214.693 81.8357C214.01 86.8695 213.863 89.8554 211.113 92.2606C206.979 95.8781 200.905 93.0964 200.076 87.9605C199.33 83.335 200.574 75.8768 205.678 74.2307C206.801 73.8619 207.999 73.7865 209.16 74.0117C210.32 74.2369 211.404 74.7553 212.307 75.5175C213.211 76.2797 213.904 77.2604 214.322 78.3663C214.739 79.4722 214.867 80.6666 214.693 81.8357Z" fill="#FFB573"/>
<path d="M213.971 86.7688C211.419 88.115 208.471 74.1811 215.247 74.9084C223.758 75.8144 219.094 84.0828 213.971 86.7688Z" fill="#263238"/>
<path d="M202.609 74.876C202.609 77.9958 212.734 81.0965 216.205 80.031C219.676 78.9656 220.55 76.203 218.687 74.289C215.535 70.9906 202.609 68.7639 202.609 74.876Z" fill="#263238"/>
<path d="M203.017 75.285C203.251 76.317 203.755 77.2683 204.478 78.0411C203.572 77.9901 202.673 76.7077 202.386 75.9612C202.099 75.2148 203.017 75.285 203.017 75.285Z" fill="#263238"/>
<path d="M216.562 87.5842C216.187 88.0953 215.715 88.5274 215.174 88.8558C214.632 89.1843 214.03 89.4026 213.404 89.4982C211.726 89.7406 211.107 88.1839 211.758 86.7165C212.345 85.3958 213.921 83.6796 215.516 84.1135C217.111 84.5473 217.481 86.3146 216.562 87.5842Z" fill="#FFB573"/>
<path d="M192.452 253.285L201.122 253.419C201.122 253.419 198.226 219.165 199.01 203.228C199.246 198.379 200.223 191.597 201.499 184.33C203.119 175.169 203.897 171.519 205.965 159.946C207.458 151.69 208.785 146.031 208.785 146.031L190.825 144.691C190.825 144.691 183.233 185.957 183.411 201.607C183.59 217.832 192.452 253.285 192.452 253.285Z" fill="#263238"/>
<path opacity="0.2" d="M202.488 156.949C199.26 164.988 199.196 183.822 200.683 189.124C200.938 187.554 201.212 185.934 201.499 184.313C203.12 175.151 203.898 171.502 205.965 159.929C206.003 159.699 206.048 159.476 206.086 159.252C205.029 158.283 203.811 157.504 202.488 156.949Z" fill="black"/>
<path d="M200.541 145.395C200.541 145.395 202.123 188.581 203.329 203.535C204.643 219.919 216.918 253.402 216.918 253.402H226.297C226.297 253.402 220.038 222.778 218.118 206.828C215.93 188.708 218.156 146.69 218.156 146.69L200.541 145.395Z" fill="#263238"/>
<path d="M215.802 253.605H226.845V250.307L214.5 250.09L215.802 253.605Z" fill="#52B686"/>
<path d="M191.361 253.452L201.69 253.612L201.741 250.275L190.193 249.918L191.361 253.452Z" fill="#52B686"/>
<path d="M206.915 82.6796C206.883 83.0943 206.641 83.4133 206.373 83.3878C206.105 83.3622 205.907 83.0177 205.939 82.6094C205.971 82.2011 206.213 81.8821 206.481 81.9012C206.749 81.9203 206.947 82.3031 206.915 82.6796Z" fill="#263238"/>
<path d="M202.244 82.3344C202.244 82.7491 201.97 83.0617 201.702 83.0426C201.434 83.0234 201.242 82.6725 201.268 82.2642C201.293 81.8559 201.542 81.5305 201.817 81.5496C202.091 81.5688 202.289 81.9197 202.244 82.3344Z" fill="#263238"/>
<path d="M203.725 82.6465C203.139 83.8702 202.387 85.0079 201.492 86.0279C201.756 86.2458 202.063 86.4042 202.393 86.4923C202.724 86.5804 203.069 86.5961 203.406 86.5383L203.725 82.6465Z" fill="#ED893E"/>
<path d="M205.089 87.7703C205.553 87.7519 206.007 87.6382 206.424 87.4362C206.841 87.2342 207.212 86.9483 207.514 86.5963C207.525 86.5851 207.534 86.5717 207.54 86.5569C207.547 86.5421 207.55 86.5262 207.55 86.5102C207.55 86.4942 207.547 86.4783 207.54 86.4636C207.534 86.4488 207.525 86.4354 207.514 86.4241C207.49 86.4026 207.46 86.3906 207.428 86.3906C207.396 86.3906 207.365 86.4026 207.342 86.4241C206.999 86.8081 206.572 87.1059 206.093 87.2932C205.614 87.4806 205.097 87.5522 204.585 87.5023C204.554 87.5005 204.524 87.5108 204.5 87.531C204.476 87.5512 204.461 87.5797 204.458 87.6108C204.456 87.6267 204.457 87.6428 204.462 87.6582C204.466 87.6736 204.474 87.6879 204.484 87.7004C204.494 87.7128 204.507 87.7232 204.521 87.7308C204.535 87.7384 204.55 87.7431 204.566 87.7447C204.74 87.7652 204.915 87.7737 205.089 87.7703Z" fill="#263238"/>
<path d="M208.466 81.2821C208.507 81.2813 208.547 81.2679 208.58 81.2438C208.607 81.227 208.63 81.205 208.648 81.179C208.667 81.1531 208.679 81.1238 208.686 81.0928C208.692 81.0619 208.693 81.0299 208.687 80.9989C208.68 80.9678 208.668 80.9383 208.651 80.9121C208.448 80.5802 208.168 80.3024 207.835 80.1024C207.502 79.9024 207.125 79.7862 206.737 79.7637C206.672 79.7637 206.611 79.7892 206.565 79.8347C206.52 79.8802 206.494 79.9418 206.494 80.0061C206.494 80.0704 206.52 80.1321 206.565 80.1775C206.611 80.223 206.672 80.2486 206.737 80.2486C207.04 80.2734 207.333 80.3703 207.592 80.5312C207.85 80.6921 208.067 80.9123 208.223 81.1737C208.249 81.2134 208.285 81.2448 208.328 81.264C208.371 81.2833 208.419 81.2896 208.466 81.2821Z" fill="#263238"/>
<path d="M200.369 80.5861C200.409 80.583 200.448 80.5703 200.483 80.5493C200.517 80.5282 200.546 80.4993 200.567 80.4649C200.711 80.1954 200.918 79.9644 201.17 79.7912C201.422 79.618 201.712 79.5078 202.015 79.4696C202.047 79.468 202.078 79.4601 202.106 79.4463C202.135 79.4325 202.16 79.4131 202.181 79.3893C202.202 79.3655 202.218 79.3377 202.228 79.3077C202.237 79.2777 202.241 79.2459 202.239 79.2144C202.238 79.1828 202.231 79.1518 202.218 79.123C202.205 79.0942 202.186 79.0684 202.163 79.047C202.14 79.0256 202.112 79.009 202.083 78.9983C202.053 78.9876 202.021 78.983 201.99 78.9847C201.607 79.0296 201.24 79.1645 200.92 79.3786C200.599 79.5926 200.334 79.8796 200.146 80.2161C200.13 80.2437 200.12 80.2742 200.115 80.3059C200.111 80.3375 200.113 80.3697 200.122 80.4005C200.13 80.4313 200.144 80.4602 200.164 80.4855C200.183 80.5108 200.208 80.532 200.235 80.5478C200.276 80.5722 200.322 80.5854 200.369 80.5861Z" fill="#263238"/>
<path d="M218.884 260.635C219.336 260.623 219.785 260.561 220.224 260.45C220.248 260.445 220.27 260.432 220.287 260.414C220.304 260.396 220.315 260.373 220.319 260.348C220.321 260.325 220.317 260.301 220.307 260.28C220.297 260.259 220.281 260.24 220.262 260.227C220.077 260.112 218.424 259.098 217.857 259.385C217.794 259.418 217.741 259.468 217.704 259.528C217.667 259.589 217.647 259.658 217.646 259.729C217.634 259.848 217.652 259.969 217.696 260.08C217.74 260.191 217.811 260.289 217.901 260.367C218.19 260.564 218.536 260.659 218.884 260.635ZM219.873 260.278C219.005 260.45 218.335 260.419 218.054 260.182C217.993 260.13 217.945 260.062 217.916 259.987C217.887 259.911 217.878 259.829 217.889 259.749C217.887 259.719 217.893 259.69 217.906 259.665C217.92 259.639 217.94 259.617 217.965 259.602C218.259 259.449 219.203 259.889 219.873 260.304V260.278Z" fill="#52B686"/>
<path d="M220.197 260.452C220.218 260.457 220.24 260.457 220.261 260.452C220.279 260.44 220.294 260.424 220.304 260.405C220.314 260.386 220.319 260.365 220.318 260.343C220.318 260.279 220.191 258.799 219.598 258.314C219.528 258.253 219.445 258.207 219.356 258.181C219.267 258.154 219.173 258.148 219.081 258.161C218.99 258.159 218.901 258.19 218.829 258.247C218.758 258.304 218.709 258.384 218.692 258.474C218.583 259.048 219.61 260.171 220.14 260.458L220.197 260.452ZM219.164 258.391C219.266 258.39 219.364 258.429 219.438 258.499C219.799 258.959 220.01 259.518 220.044 260.101C219.521 259.699 218.864 258.825 218.928 258.519C218.928 258.487 218.928 258.41 219.106 258.391H219.164Z" fill="#52B686"/>
<path d="M194.449 260.342C194.471 260.334 194.49 260.32 194.505 260.302C194.519 260.284 194.529 260.263 194.532 260.24C194.535 260.216 194.53 260.191 194.519 260.169C194.507 260.148 194.49 260.13 194.468 260.119C194.239 259.991 192.197 258.919 191.572 259.251C191.513 259.283 191.463 259.33 191.427 259.387C191.392 259.444 191.371 259.509 191.368 259.576C191.353 259.685 191.365 259.796 191.402 259.9C191.44 260.003 191.503 260.096 191.584 260.17C192.133 260.674 193.607 260.495 194.436 260.342H194.449ZM191.731 259.449C192.114 259.321 193.224 259.761 194.034 260.163C192.899 260.336 192.057 260.272 191.744 259.991C191.691 259.941 191.65 259.879 191.626 259.81C191.602 259.741 191.594 259.668 191.604 259.595C191.604 259.568 191.612 259.542 191.626 259.519C191.641 259.497 191.662 259.479 191.687 259.468L191.731 259.449Z" fill="#52B686"/>
<path d="M194.448 260.343H194.48C194.498 260.332 194.513 260.316 194.522 260.297C194.531 260.277 194.534 260.256 194.531 260.235C194.531 260.177 194.41 258.793 193.766 258.251C193.679 258.173 193.578 258.114 193.469 258.077C193.359 258.04 193.243 258.025 193.128 258.034C192.789 258.034 192.694 258.225 192.668 258.365C192.566 258.94 193.772 260.069 194.384 260.356C194.406 260.357 194.428 260.352 194.448 260.343ZM192.994 258.276H193.121C193.21 258.268 193.3 258.278 193.384 258.307C193.469 258.335 193.547 258.381 193.612 258.442C193.984 258.893 194.206 259.448 194.25 260.031C193.612 259.641 192.809 258.755 192.866 258.41C192.885 258.391 192.892 258.308 192.994 258.276Z" fill="#52B686"/>
<path d="M224.385 105.615C226.171 109.201 227.772 112.786 229.246 116.461C229.993 118.299 230.682 120.168 231.358 122.05C231.69 123.001 231.996 123.964 232.315 124.908L232.545 125.629L232.793 126.459C232.972 127.027 233.074 127.594 233.208 128.156C233.912 132.452 233.712 136.848 232.621 141.063C232.148 143.063 231.549 145.032 230.828 146.958C230.465 147.915 230.075 148.872 229.661 149.784C229.246 150.696 228.825 151.615 228.308 152.572L224.78 151.041C225.271 149.299 225.769 147.417 226.12 145.586C226.471 143.755 226.796 141.905 227 140.08C227.202 138.288 227.274 136.485 227.217 134.683C227.183 132.995 226.947 131.318 226.515 129.687C226.394 129.311 226.299 128.915 226.152 128.558C226.075 128.373 226.031 128.22 225.935 127.996L225.667 127.358C225.31 126.484 224.92 125.61 224.55 124.736C223.804 122.975 222.994 121.233 222.215 119.479L217.398 108.997L224.385 105.615Z" fill="#FFB573"/>
<path d="M223.07 102.424C227.74 103.891 232.334 119.733 232.334 119.733L221.526 124.46C221.526 124.46 218.03 116.804 216.014 110.807C213.825 104.268 217.405 100.65 223.07 102.424Z" fill="#52B686"/>
<path opacity="0.2" d="M223.07 102.424C227.74 103.891 232.334 119.733 232.334 119.733L221.526 124.46C221.526 124.46 218.03 116.804 216.014 110.807C213.825 104.268 217.405 100.65 223.07 102.424Z" fill="black"/>
<path d="M225.067 150.18L222.547 154.729L228.487 156.273C228.487 156.273 230.279 151.864 228.161 150.46L225.067 150.18Z" fill="#FFB573"/>
<path d="M222.105 159.89L227.56 160.343L228.485 156.272L222.546 154.729L222.105 159.89Z" fill="#FFB573"/>
<path opacity="0.19" d="M189.326 184.554H54.338L63.8569 49.572H198.845L189.326 184.554Z" fill="#52B686"/>
<path opacity="0.2" d="M84.7522 184.554H65.3379L113.705 49.5723H133.119L84.7522 184.554Z" fill="white"/>
<path opacity="0.2" d="M131.905 184.554H89.082L137.449 49.5723H180.271L131.905 184.554Z" fill="white"/>
<path d="M64.2134 72.623L60.2578 72.3423L62.0059 47.5879H86.7667V51.5563H65.7L64.2134 72.623Z" fill="#52B686"/>
<path d="M77.2485 186.539H52.207L53.9743 161.51L57.9299 161.79L56.4625 182.57H77.2485V186.539Z" fill="#52B686"/>
<path d="M199.202 72.623L195.253 72.3423L196.714 51.5563H175.928V47.5879H200.969L199.202 72.623Z" fill="#52B686"/>
<path d="M191.171 186.539H166.41V182.57H187.477L188.963 161.51L192.919 161.79L191.171 186.539Z" fill="#52B686"/>
<g opacity="0.3">
<path d="M123.93 164.647C123.812 164.645 123.697 164.617 123.592 164.564C123.553 164.564 122.615 164.029 121.04 163.059C120.402 162.657 119.598 162.166 118.724 161.611C115.948 159.805 113.275 157.904 110.768 155.958C110.13 155.486 109.556 155.001 108.937 154.503C106.627 152.589 104.471 150.713 102.595 148.851C102.11 148.366 101.632 147.881 101.153 147.383C99.4109 145.589 97.7749 143.696 96.2532 141.711C95.8832 141.233 95.5259 140.742 95.175 140.244C93.8774 138.435 92.7193 136.531 91.7107 134.547C91.4682 134.068 91.2258 133.564 91.0025 133.06C90.1648 131.215 89.5108 129.291 89.0502 127.318C88.9354 126.865 88.8333 126.374 88.744 125.825C88.6738 125.468 88.6164 125.091 88.5717 124.721C88.3739 123.26 88.208 121.774 88.0485 120.166C87.9975 119.688 87.9528 119.203 87.9082 118.724C87.7423 116.81 87.6019 114.941 87.4999 113.078V112.925C87.4999 112.504 87.4488 112.083 87.4297 111.649C87.3404 109.811 87.2766 107.916 87.2383 106.015V104.567C87.2383 102.557 87.2383 100.662 87.2383 98.9334C87.2383 98.4485 87.2383 97.9637 87.2702 97.4852C87.3148 95.4053 87.385 93.5104 87.468 91.8516V91.7432C87.468 91.2838 87.5062 90.8372 87.5318 90.397C87.6466 88.3426 87.7806 86.3967 87.9209 84.7634C87.9656 84.2084 88.0039 83.7362 88.0485 83.3152C88.1953 81.7074 88.3037 80.8078 88.3037 80.8078C88.3169 80.643 88.3883 80.4882 88.5052 80.3713C88.6222 80.2544 88.7769 80.183 88.9417 80.1698C89.0566 80.1698 100.828 79.2575 113.364 77.05C115.916 76.6034 118.379 76.1185 120.714 75.6145C124.153 74.8617 127.298 74.045 130.074 73.1837C130.213 73.1393 130.362 73.1393 130.501 73.1837C133.149 74.0514 136.179 74.868 139.51 75.6145C141.775 76.1249 144.173 76.6034 146.655 77.05C158.879 79.2575 170.523 80.1635 170.638 80.1698C170.815 80.1845 170.981 80.2668 171.099 80.3997C171.218 80.5327 171.281 80.7062 171.276 80.8844C171.276 80.8844 171.276 81.7776 171.18 83.3917C171.18 83.8192 171.135 84.3041 171.103 84.84C171.008 86.4796 170.867 88.4255 170.695 90.4735C170.657 90.8818 170.618 91.2902 170.58 91.7176V91.9282C170.433 93.5933 170.229 95.4882 169.987 97.5553C169.929 98.0466 169.872 98.5251 169.808 99.01C169.591 100.745 169.33 102.64 169.023 104.637L168.807 106.079C168.5 107.993 168.169 109.907 167.824 111.719C167.747 112.127 167.665 112.542 167.582 112.957L167.537 113.174C167.173 115.024 166.771 116.925 166.338 118.807L165.993 120.262C165.604 121.87 165.227 123.356 164.832 124.811C164.723 125.187 164.615 125.557 164.5 125.927C164.328 126.469 164.162 126.954 163.983 127.414C163.235 129.405 162.313 131.326 161.227 133.156C160.94 133.647 160.634 134.145 160.315 134.63C159.023 136.616 157.602 138.515 156.059 140.314C155.638 140.805 155.217 141.297 154.783 141.775C152.987 143.758 151.092 145.649 149.105 147.441C148.556 147.934 148.008 148.419 147.459 148.895C145.296 150.758 142.904 152.653 140.333 154.541C139.644 155.039 138.967 155.524 138.297 155.996C135.516 157.942 132.555 159.824 129.557 161.642C128.6 162.197 127.751 162.689 127.005 163.091C125.295 164.054 124.287 164.571 124.249 164.59C124.148 164.634 124.039 164.653 123.93 164.647ZM89.6244 81.5352C89.5797 81.9562 89.5159 82.5942 89.4394 83.4492C89.3947 83.8702 89.3564 84.336 89.3182 84.8464C89.1778 86.5052 89.0438 88.4383 88.929 90.4863C88.929 90.9201 88.8843 91.3603 88.8588 91.8197V91.9282C88.7695 93.5742 88.7057 95.4563 88.661 97.5234C88.661 97.9956 88.661 98.4741 88.6291 98.9589C88.6291 100.682 88.6291 102.564 88.6291 104.554V106.002C88.6674 107.885 88.7312 109.767 88.8205 111.585C88.8205 112.006 88.8588 112.421 88.8843 112.861V113.052C88.9864 114.896 89.1204 116.778 89.2863 118.641C89.3309 119.12 89.3756 119.598 89.4266 120.077C89.5797 121.665 89.752 123.146 89.9434 124.587C89.9881 124.938 90.0391 125.289 90.1029 125.634C90.1922 126.157 90.2879 126.61 90.3964 127.044C90.8389 128.929 91.465 130.767 92.2657 132.53C92.4826 133.009 92.7059 133.487 92.942 133.947C93.92 135.87 95.0419 137.717 96.2979 139.472C96.6424 139.95 96.9869 140.429 97.3506 140.895C98.8413 142.836 100.441 144.691 102.142 146.452C102.614 146.937 103.086 147.415 103.565 147.887C105.428 149.718 107.527 151.588 109.804 153.451C110.442 153.942 111.017 154.42 111.616 154.892C114.085 156.806 116.72 158.688 119.464 160.469C120.325 161.017 121.097 161.502 121.754 161.898C122.768 162.536 123.521 162.957 123.923 163.174C124.351 162.95 125.199 162.536 126.297 161.898C127.018 161.496 127.853 161.011 128.798 160.456C131.783 158.676 134.693 156.8 137.442 154.873C138.08 154.408 138.776 153.929 139.459 153.431C142.011 151.568 144.365 149.699 146.477 147.862C147.019 147.39 147.561 146.911 148.097 146.42C150.053 144.661 151.918 142.804 153.686 140.856C154.113 140.384 154.528 139.912 154.962 139.434C156.466 137.682 157.852 135.832 159.109 133.896C159.422 133.424 159.747 132.945 159.989 132.473C161.049 130.718 161.952 128.874 162.688 126.961C162.86 126.521 163.02 126.061 163.179 125.544C163.294 125.193 163.396 124.836 163.492 124.485C163.888 123.043 164.264 121.57 164.647 119.975C164.768 119.496 164.876 119.018 164.991 118.539C165.419 116.67 165.821 114.788 166.178 112.95L166.223 112.727C166.306 112.319 166.382 111.91 166.459 111.502C166.803 109.69 167.135 107.808 167.435 105.907L167.658 104.471C167.958 102.487 168.22 100.605 168.437 98.876C168.5 98.3975 168.551 97.9254 168.609 97.4532C168.851 95.3861 169.055 93.504 169.202 91.8452V91.6347C169.24 91.2136 169.279 90.7989 169.311 90.397C169.483 88.3681 169.623 86.435 169.713 84.8081C169.744 84.2722 169.77 83.7937 169.795 83.3662C169.827 82.5878 169.853 81.9754 169.866 81.5607C167.212 81.331 157.029 80.3931 146.413 78.4791C143.912 78.0261 141.494 77.5413 139.21 77.0309C135.924 76.2908 132.925 75.4869 130.278 74.632C127.515 75.4869 124.402 76.2908 121.008 77.0309C118.66 77.5413 116.172 78.0261 113.607 78.4791C102.589 80.3867 92.1573 81.3246 89.6244 81.5352Z" fill="#52B686"/>
<path d="M133.785 109.625C137.23 106.299 137.509 101 134.409 97.7876C131.308 94.5756 126.002 94.6679 122.556 97.9937C119.111 101.32 118.832 106.619 121.933 109.831C125.033 113.043 130.34 112.951 133.785 109.625Z" fill="#52B686"/>
<path d="M130.01 106.73H127.963H125.921L120.141 133.692H131.988L130.01 106.73Z" fill="#52B686"/>
<g opacity="0.2">
<path d="M146.528 77.7588H113.486C115.936 77.325 118.418 76.8465 120.862 76.3105H139.364C141.731 76.8465 144.142 77.325 146.528 77.7588Z" fill="#52B686"/>
<path d="M170.409 84.8155H88.6172C88.6555 84.2795 88.6937 83.801 88.7384 83.3672H170.485C170.466 83.801 170.441 84.2795 170.409 84.8155Z" fill="#52B686"/>
<path d="M169.999 90.4238C169.961 90.8959 169.916 91.3808 169.871 91.8785H88.1562C88.1562 91.3808 88.2009 90.8959 88.2264 90.4238H169.999Z" fill="#52B686"/>
<path d="M169.279 97.4863C169.222 97.9648 169.164 98.4497 169.1 98.9346H87.9277C87.9277 98.4497 87.9277 97.9648 87.9596 97.4863H169.279Z" fill="#52B686"/>
<path d="M168.322 104.549C168.245 105.027 168.175 105.506 168.098 105.991H87.9336C87.9336 105.506 87.9336 105.027 87.9336 104.549H168.322Z" fill="#52B686"/>
<path d="M167.154 111.605L166.867 113.054H88.2016C88.2016 112.569 88.1441 112.084 88.125 111.605H167.154Z" fill="#52B686"/>
<path d="M165.643 118.668L165.298 120.11H88.738C88.687 119.631 88.6423 119.146 88.5977 118.668H165.643Z" fill="#52B686"/>
<path d="M163.818 125.725C163.665 126.209 163.499 126.694 163.314 127.173H89.7335C89.6122 126.694 89.5165 126.209 89.4336 125.725H163.818Z" fill="#52B686"/>
<path d="M160.61 132.779C160.329 133.264 160.023 133.755 159.717 134.228H92.3375C92.095 133.755 91.8654 133.264 91.6484 132.779H160.61Z" fill="#52B686"/>
<path d="M155.511 139.842C155.097 140.327 154.682 140.812 154.235 141.284H96.8155C96.4454 140.812 96.0945 140.327 95.75 139.842H155.511Z" fill="#52B686"/>
<path d="M148.607 146.898C148.064 147.39 147.522 147.875 146.973 148.347H103.085C102.607 147.875 102.128 147.39 101.656 146.898H148.607Z" fill="#52B686"/>
<path d="M139.892 153.955C139.203 154.453 138.534 154.938 137.864 155.403H111.202C110.602 154.938 109.996 154.453 109.377 153.955H139.892Z" fill="#52B686"/>
<path d="M129.174 161.018C128.223 161.573 127.381 162.058 126.66 162.459H121.409C120.771 162.058 119.967 161.573 119.1 161.018H129.174Z" fill="#52B686"/>
</g>
</g>
</svg>
